G04 #@! TF.FileFunction,Copper,L2,Bot,Signal*
%FSLAX46Y46*%
G04 Gerber Fmt 4.6, Leading zero omitted, Abs format (unit mm)*
G04 Created by KiCad (PCBNEW 4.0.6) date Tuesday, 09 November 2021 'PMt' 18:18:22*
%MOMM*%
%LPD*%
G01*
G04 APERTURE LIST*
%ADD10C,0.100000*%
%ADD11O,2.000000X1.200000*%
%ADD12R,1.500000X1.250000*%
%ADD13R,2.500000X2.000000*%
%ADD14R,3.200000X3.600000*%
%ADD15R,2.540000X2.540000*%
%ADD16C,2.540000*%
%ADD17R,1.500000X1.300000*%
%ADD18R,1.300000X1.500000*%
%ADD19R,0.900000X2.500000*%
%ADD20R,2.500000X0.900000*%
%ADD21C,1.998980*%
%ADD22O,1.800000X3.000000*%
%ADD23C,3.000000*%
%ADD24R,1.550000X0.600000*%
%ADD25C,4.064000*%
%ADD26C,3.810000*%
%ADD27R,3.810000X3.810000*%
%ADD28C,1.200000*%
%ADD29C,1.000000*%
%ADD30C,0.700000*%
G04 APERTURE END LIST*
D10*
D11*
X23012400Y37909500D03*
X23012400Y40449500D03*
X23012400Y42989500D03*
X23012400Y45529500D03*
D12*
X30053600Y20015200D03*
X27553600Y20015200D03*
X30002800Y14986000D03*
X27502800Y14986000D03*
X30053600Y7899400D03*
X27553600Y7899400D03*
X29952000Y3251200D03*
X27452000Y3251200D03*
X41534400Y41275000D03*
X39034400Y41275000D03*
D13*
X47774400Y12776000D03*
X47774400Y8776000D03*
X44084400Y12776000D03*
X44084400Y8776000D03*
D14*
X68808600Y37937000D03*
X68808600Y46137000D03*
X59639200Y33614800D03*
X59639200Y25414800D03*
X57934400Y14496000D03*
X57934400Y6296000D03*
X52724400Y14626000D03*
X52724400Y6426000D03*
D15*
X4089400Y45872400D03*
D16*
X4089400Y40792400D03*
X4089400Y35712400D03*
D15*
X68986400Y14808200D03*
D16*
X68986400Y9728200D03*
D15*
X69062600Y25095200D03*
D16*
X69062600Y30175200D03*
D17*
X30204400Y17551400D03*
X27504400Y17551400D03*
X30102800Y12649200D03*
X27402800Y12649200D03*
X30204400Y10236200D03*
X27504400Y10236200D03*
X30052000Y5486400D03*
X27352000Y5486400D03*
D18*
X13766800Y14525000D03*
X13766800Y17225000D03*
X11303000Y14423400D03*
X11303000Y17123400D03*
D17*
X14456400Y5943600D03*
X11756400Y5943600D03*
X14405600Y3200400D03*
X11705600Y3200400D03*
D18*
X9296400Y44276000D03*
X9296400Y41576000D03*
D17*
X33209400Y49800000D03*
X35909400Y49800000D03*
X35919400Y51940000D03*
X33219400Y51940000D03*
D19*
X66880400Y25146000D03*
X63980400Y25146000D03*
D20*
X69164200Y32509800D03*
X69164200Y35409800D03*
D21*
X53365400Y20066000D03*
X60985400Y20066000D03*
D22*
X17519400Y55385000D03*
X17519400Y29985000D03*
X20059400Y55385000D03*
X20059400Y29985000D03*
X22599400Y55385000D03*
X22599400Y29985000D03*
X25139400Y55385000D03*
X25139400Y29985000D03*
X27679400Y55385000D03*
X27679400Y29985000D03*
X30219400Y55385000D03*
X30219400Y29985000D03*
X32759400Y55385000D03*
X32759400Y29985000D03*
X35299400Y55385000D03*
X35299400Y29985000D03*
X37839400Y55385000D03*
X37839400Y29985000D03*
X40379400Y55385000D03*
X40379400Y29985000D03*
X42919400Y55385000D03*
X42919400Y29985000D03*
X45459400Y55385000D03*
X45459400Y29985000D03*
X47999400Y55385000D03*
X47999400Y29985000D03*
X50539400Y55385000D03*
X50539400Y29985000D03*
X53079400Y55385000D03*
X53079400Y29985000D03*
D23*
X41554400Y5456000D03*
X61874400Y15616000D03*
X41554400Y15616000D03*
X61714400Y5536000D03*
D24*
X36059400Y43565000D03*
X36059400Y44835000D03*
X36059400Y46105000D03*
X36059400Y47375000D03*
X41459400Y47375000D03*
X41459400Y46105000D03*
X41459400Y44835000D03*
X41459400Y43565000D03*
D25*
X5486400Y53721000D03*
X69621400Y53975000D03*
X68859400Y4445000D03*
X4445000Y3911600D03*
D18*
X26212800Y38604200D03*
X26212800Y41304200D03*
D17*
X17039600Y45770800D03*
X19739600Y45770800D03*
D26*
X4089400Y19685000D03*
X4089400Y14605000D03*
D27*
X4089400Y24765000D03*
D26*
X4089400Y9525000D03*
D11*
X17043400Y26098500D03*
X17043400Y23558500D03*
X17043400Y21018500D03*
X17043400Y18478500D03*
X17043400Y15938500D03*
X17043400Y13398500D03*
X17043400Y10858500D03*
X17043400Y8318500D03*
X17043400Y5778500D03*
X17043400Y3238500D03*
D28*
X20193000Y35052000D03*
X11811000Y38023800D03*
X33223200Y45618400D03*
X33172400Y41198800D03*
X15189200Y49961800D03*
X26212800Y50038000D03*
X28448000Y51739800D03*
X40081200Y51917600D03*
D29*
X4368800Y35433000D02*
X7010400Y35433000D01*
X20193000Y35052000D02*
X34848800Y35052000D01*
X11811000Y38023800D02*
X9220200Y35433000D01*
X9220200Y35433000D02*
X7010400Y35433000D01*
X4368800Y35433000D02*
X4089400Y35712400D01*
X39077900Y49872900D02*
X55308500Y49872900D01*
X55308500Y49872900D02*
X59436000Y54000400D01*
X63779400Y54000400D02*
X59436000Y54000400D01*
X50539400Y57041800D02*
X50539400Y55385000D01*
X59436000Y54000400D02*
X55753000Y57683400D01*
X55753000Y57683400D02*
X55499000Y57937400D01*
X55499000Y57937400D02*
X51435000Y57937400D01*
X51435000Y57937400D02*
X50539400Y57041800D01*
X59639200Y25414800D02*
X59751400Y25414800D01*
X59751400Y25414800D02*
X63474600Y21691600D01*
X71983600Y21691600D02*
X72085200Y21590000D01*
X63474600Y21691600D02*
X71983600Y21691600D01*
X43027600Y41275000D02*
X50469800Y41275000D01*
X56982800Y25414800D02*
X59639200Y25414800D01*
X55651400Y26746200D02*
X56982800Y25414800D01*
X55651400Y36093400D02*
X55651400Y26746200D01*
X50469800Y41275000D02*
X55651400Y36093400D01*
X68808600Y46137000D02*
X68808600Y48971200D01*
X63474600Y54305200D02*
X63779400Y54000400D01*
X63779400Y54000400D02*
X67106800Y50673000D01*
X68808600Y48971200D02*
X67106800Y50673000D01*
X72085200Y17145000D02*
X72085200Y21590000D01*
X71287200Y46137000D02*
X68808600Y46137000D01*
X72618600Y44805600D02*
X71287200Y46137000D01*
X72618600Y22123400D02*
X72618600Y44805600D01*
X72085200Y21590000D02*
X72618600Y22123400D01*
X68986400Y9728200D02*
X71145400Y9728200D01*
X72085200Y10668000D02*
X72085200Y17145000D01*
X72085200Y17145000D02*
X72085200Y17424400D01*
X71145400Y9728200D02*
X72085200Y10668000D01*
X68986400Y9728200D02*
X65906600Y9728200D01*
X65906600Y9728200D02*
X61714400Y5536000D01*
D30*
X36059400Y44835000D02*
X34006600Y44835000D01*
X34006600Y44835000D02*
X33223200Y45618400D01*
D29*
X33172400Y41198800D02*
X34848800Y39522400D01*
X34848800Y39522400D02*
X34848800Y35052000D01*
X50539400Y29985000D02*
X50539400Y31832800D01*
X50539400Y31832800D02*
X47320200Y35052000D01*
X47320200Y35052000D02*
X34848800Y35052000D01*
X41534400Y41275000D02*
X43027600Y41275000D01*
X43027600Y41275000D02*
X43078400Y41275000D01*
D30*
X43413900Y41610500D02*
X41459400Y43565000D01*
D29*
X35919400Y51940000D02*
X37010800Y51940000D01*
X37010800Y51940000D02*
X39077900Y49872900D01*
X39077900Y49872900D02*
X39319200Y49631600D01*
X61714400Y5536000D02*
X62000200Y5536000D01*
X41554400Y5456000D02*
X30082400Y5456000D01*
X30082400Y5456000D02*
X30052000Y5486400D01*
X50539400Y29985000D02*
X50539400Y27400000D01*
X37490400Y9520000D02*
X41554400Y5456000D01*
X37490400Y20320000D02*
X37490400Y9520000D01*
X42062400Y24892000D02*
X37490400Y20320000D01*
X48031400Y24892000D02*
X42062400Y24892000D01*
X50539400Y27400000D02*
X48031400Y24892000D01*
X30052000Y5486400D02*
X30052000Y3351200D01*
X30052000Y3351200D02*
X29952000Y3251200D01*
X30053600Y7899400D02*
X30053600Y5488000D01*
X30053600Y5488000D02*
X30052000Y5486400D01*
X30204400Y10236200D02*
X30204400Y8050200D01*
X30204400Y8050200D02*
X30053600Y7899400D01*
X30102800Y12649200D02*
X30102800Y10337800D01*
X30102800Y10337800D02*
X30204400Y10236200D01*
X30002800Y14986000D02*
X30002800Y12749200D01*
X30002800Y12749200D02*
X30102800Y12649200D01*
X30204400Y17551400D02*
X30204400Y15187600D01*
X30204400Y15187600D02*
X30002800Y14986000D01*
X30053600Y20015200D02*
X30053600Y17702200D01*
X30053600Y17702200D02*
X30204400Y17551400D01*
X30053600Y20015200D02*
X30053600Y21152800D01*
X27647900Y23558500D02*
X17043400Y23558500D01*
X30053600Y21152800D02*
X27647900Y23558500D01*
X23012400Y40449500D02*
X21081576Y40449500D01*
X13562198Y26341202D02*
X16344900Y23558500D01*
X13562198Y32930122D02*
X13562198Y26341202D01*
X21081576Y40449500D02*
X13562198Y32930122D01*
X16344900Y23558500D02*
X17043400Y23558500D01*
X44084400Y8776000D02*
X44084400Y7986000D01*
X44084400Y7986000D02*
X41554400Y5456000D01*
X47774400Y8776000D02*
X44084400Y8776000D01*
X52724400Y6426000D02*
X50124400Y6426000D01*
X50124400Y6426000D02*
X47774400Y8776000D01*
X57934400Y6296000D02*
X52854400Y6296000D01*
X52854400Y6296000D02*
X52724400Y6426000D01*
X61714400Y5536000D02*
X58694400Y5536000D01*
X58694400Y5536000D02*
X57934400Y6296000D01*
X43078400Y41275000D02*
X43413900Y41610500D01*
D30*
X39034400Y41275000D02*
X39034400Y45268200D01*
X38197600Y46105000D02*
X36059400Y46105000D01*
X39034400Y45268200D02*
X38197600Y46105000D01*
D29*
X53079400Y29985000D02*
X53079400Y31414124D01*
X53079400Y31414124D02*
X47941522Y36552002D01*
X39034400Y38664200D02*
X39034400Y41275000D01*
X41146598Y36552002D02*
X39034400Y38664200D01*
X47941522Y36552002D02*
X41146598Y36552002D01*
X53079400Y29985000D02*
X53079400Y27818676D01*
X53079400Y27818676D02*
X41554400Y16293676D01*
X41554400Y16293676D02*
X41554400Y15616000D01*
X44084400Y12776000D02*
X44084400Y13086000D01*
X44084400Y13086000D02*
X41554400Y15616000D01*
X53365400Y20066000D02*
X53365400Y15267000D01*
X53365400Y15267000D02*
X52724400Y14626000D01*
X61874400Y15616000D02*
X61874400Y15366000D01*
X57934400Y14496000D02*
X60754400Y14496000D01*
X60754400Y14496000D02*
X61874400Y15616000D01*
X52724400Y14626000D02*
X57804400Y14626000D01*
X57804400Y14626000D02*
X57934400Y14496000D01*
X47774400Y12776000D02*
X50874400Y12776000D01*
X50874400Y12776000D02*
X52724400Y14626000D01*
X69164200Y35409800D02*
X69164200Y37581400D01*
X69164200Y37581400D02*
X68808600Y37937000D01*
X45339000Y45170000D02*
X59198600Y45170000D01*
X66431600Y37937000D02*
X59817000Y44551600D01*
X66431600Y37937000D02*
X68808600Y37937000D01*
X59198600Y45170000D02*
X59817000Y44551600D01*
D30*
X43174400Y46105000D02*
X41459400Y46105000D01*
X43174400Y46105000D02*
X44109400Y45170000D01*
D29*
X44109400Y45170000D02*
X45339000Y45170000D01*
X45339000Y45170000D02*
X45381000Y45170000D01*
X59639200Y33614800D02*
X62829000Y33614800D01*
X62829000Y33614800D02*
X63980400Y32463400D01*
X44683200Y43150000D02*
X59097276Y43150000D01*
X63980400Y38266876D02*
X63980400Y32463400D01*
X63980400Y32463400D02*
X63980400Y25146000D01*
X59097276Y43150000D02*
X63980400Y38266876D01*
X44169400Y43150000D02*
X44683200Y43150000D01*
D30*
X42484400Y44835000D02*
X44169400Y43150000D01*
X41459400Y44835000D02*
X42484400Y44835000D01*
D29*
X44683200Y43150000D02*
X44781602Y43051598D01*
X4368800Y45593000D02*
X7010400Y45593000D01*
X8327400Y44276000D02*
X7010400Y45593000D01*
X8327400Y44276000D02*
X9296400Y44276000D01*
X4368800Y45593000D02*
X4089400Y45872400D01*
X26212800Y50038000D02*
X26212800Y49428400D01*
X28502600Y38604200D02*
X26212800Y38604200D01*
X28702000Y38404800D02*
X28502600Y38604200D01*
X28702000Y46939200D02*
X28702000Y38404800D01*
X26212800Y49428400D02*
X28702000Y46939200D01*
X52273200Y51943000D02*
X40106600Y51943000D01*
X53079400Y52749200D02*
X52273200Y51943000D01*
X53079400Y55385000D02*
X53079400Y52749200D01*
X14224000Y48996600D02*
X14224000Y45770800D01*
X15189200Y49961800D02*
X14224000Y48996600D01*
X26746200Y50038000D02*
X26212800Y50038000D01*
X28448000Y51739800D02*
X26746200Y50038000D01*
X40106600Y51943000D02*
X40081200Y51917600D01*
X26212800Y38604200D02*
X26212800Y38557200D01*
X26212800Y38557200D02*
X25565100Y37909500D01*
X25565100Y37909500D02*
X23012400Y37909500D01*
X9296400Y44276000D02*
X12551400Y44276000D01*
X12551400Y44276000D02*
X14046200Y45770800D01*
X14046200Y45770800D02*
X14224000Y45770800D01*
X14224000Y45770800D02*
X17039600Y45770800D01*
X17043400Y26098500D02*
X16954500Y26098500D01*
X16954500Y26098500D02*
X15062200Y27990800D01*
X15062200Y27990800D02*
X15062200Y32308800D01*
X15062200Y32308800D02*
X20662900Y37909500D01*
X20662900Y37909500D02*
X23012400Y37909500D01*
X4089400Y40792400D02*
X3454400Y40792400D01*
X3454400Y40792400D02*
X965200Y43281600D01*
X9601200Y52171600D02*
X7035800Y49606200D01*
X7035800Y49606200D02*
X5689600Y49606200D01*
X15773400Y58343800D02*
X9601200Y52171600D01*
X26187400Y58343800D02*
X15773400Y58343800D01*
X27679400Y56851800D02*
X26187400Y58343800D01*
X2235200Y49606200D02*
X5689600Y49606200D01*
X965200Y48336200D02*
X2235200Y49606200D01*
X965200Y43281600D02*
X965200Y48336200D01*
X4368800Y40513000D02*
X7010400Y40513000D01*
X8073400Y41576000D02*
X7010400Y40513000D01*
X8073400Y41576000D02*
X9296400Y41576000D01*
X4368800Y40513000D02*
X4089400Y40792400D01*
X27679400Y55385000D02*
X27679400Y56851800D01*
X68986400Y14808200D02*
X68986400Y15290800D01*
X68986400Y15290800D02*
X64211200Y20066000D01*
X64211200Y20066000D02*
X60985400Y20066000D01*
X69062600Y25095200D02*
X66931200Y25095200D01*
X66931200Y25095200D02*
X66880400Y25146000D01*
X69062600Y30175200D02*
X69062600Y32408200D01*
X69062600Y32408200D02*
X69164200Y32509800D01*
X33219400Y51940000D02*
X33219400Y49810000D01*
D30*
X33219400Y49810000D02*
X33209400Y49800000D01*
D29*
X32759400Y55385000D02*
X32759400Y52400000D01*
D30*
X32759400Y52400000D02*
X33219400Y51940000D01*
X35909400Y49800000D02*
X35909400Y47525000D01*
X35909400Y47525000D02*
X36059400Y47375000D01*
D29*
X19739600Y45770800D02*
X22771100Y45770800D01*
X22771100Y45770800D02*
X23012400Y45529500D01*
X17519400Y55385000D02*
X17519400Y51039800D01*
X17313900Y50834300D02*
X20955000Y47193200D01*
X20955000Y47193200D02*
X22479000Y47193200D01*
X22479000Y47193200D02*
X23012400Y46659800D01*
X23012400Y46659800D02*
X23012400Y45529500D01*
X17519400Y51039800D02*
X17313900Y50834300D01*
X23012400Y45529500D02*
X21918928Y45529500D01*
X15899976Y18478500D02*
X17043400Y18478500D01*
X10562194Y23816282D02*
X15899976Y18478500D01*
X10562194Y34172766D02*
X10562194Y23816282D01*
X21918928Y45529500D02*
X10562194Y34172766D01*
X23012400Y42989500D02*
X24527500Y42989500D01*
X24527500Y42989500D02*
X26212800Y41304200D01*
X20059400Y55385000D02*
X20059400Y50781200D01*
X20062200Y50778400D02*
X21920200Y48920400D01*
X21920200Y48920400D02*
X24053800Y48920400D01*
X24053800Y48920400D02*
X25781000Y47193200D01*
X25781000Y47193200D02*
X25781000Y44297600D01*
X25781000Y44297600D02*
X24472900Y42989500D01*
X24472900Y42989500D02*
X23012400Y42989500D01*
X20059400Y50781200D02*
X20062200Y50778400D01*
X23012400Y42989500D02*
X21500252Y42989500D01*
X12062196Y24437604D02*
X15481300Y21018500D01*
X12062196Y33551444D02*
X12062196Y24437604D01*
X21500252Y42989500D02*
X12062196Y33551444D01*
X15481300Y21018500D02*
X17043400Y21018500D01*
D30*
X36059400Y43565000D02*
X31294400Y43565000D01*
D29*
X30369400Y44490000D02*
X30369400Y55235000D01*
X31294400Y43565000D02*
X30369400Y44490000D01*
D30*
X30369400Y55235000D02*
X30219400Y55385000D01*
D29*
X17043400Y10858500D02*
X18859500Y10858500D01*
X25552400Y17551400D02*
X27504400Y17551400D01*
X18859500Y10858500D02*
X25552400Y17551400D01*
X27504400Y17551400D02*
X27504400Y19966000D01*
X27504400Y19966000D02*
X27553600Y20015200D01*
X13766800Y14525000D02*
X13766800Y12750800D01*
X15659100Y10858500D02*
X17043400Y10858500D01*
X13766800Y12750800D02*
X15659100Y10858500D01*
X17043400Y8318500D02*
X21628100Y8318500D01*
X25958800Y12649200D02*
X27402800Y12649200D01*
X21628100Y8318500D02*
X25958800Y12649200D01*
X27402800Y12649200D02*
X27402800Y14886000D01*
X27402800Y14886000D02*
X27502800Y14986000D01*
X11303000Y14423400D02*
X11303000Y13093276D01*
X11303000Y13093276D02*
X16077776Y8318500D01*
X16077776Y8318500D02*
X17043400Y8318500D01*
X27553600Y7899400D02*
X27553600Y10187000D01*
X27553600Y10187000D02*
X27504400Y10236200D01*
X17043400Y5778500D02*
X23380700Y5778500D01*
X25501600Y7899400D02*
X27553600Y7899400D01*
X23380700Y5778500D02*
X25501600Y7899400D01*
X14456400Y5943600D02*
X16878300Y5943600D01*
X16878300Y5943600D02*
X17043400Y5778500D01*
X17043400Y3238500D02*
X27439300Y3238500D01*
X27439300Y3238500D02*
X27352000Y3325800D01*
X27352000Y3325800D02*
X27352000Y5486400D01*
X14405600Y3200400D02*
X17005300Y3200400D01*
X17005300Y3200400D02*
X17043400Y3238500D01*
X6578600Y19913600D02*
X4318000Y19913600D01*
X4318000Y19913600D02*
X4089400Y19685000D01*
X11303000Y17123400D02*
X11303000Y18832828D01*
X10222228Y19913600D02*
X6578600Y19913600D01*
X6578600Y19913600D02*
X6477000Y19913600D01*
X11303000Y18832828D02*
X10222228Y19913600D01*
X4318000Y14833600D02*
X6477000Y14833600D01*
X11756400Y9732000D02*
X11756400Y5943600D01*
X6654800Y14833600D02*
X11756400Y9732000D01*
X6477000Y14833600D02*
X6654800Y14833600D01*
X4318000Y14833600D02*
X4089400Y14605000D01*
X4089400Y24765000D02*
X7034952Y24765000D01*
X7034952Y24765000D02*
X7263552Y24993600D01*
X13766800Y17225000D02*
X13766800Y18490352D01*
X13766800Y18490352D02*
X7263552Y24993600D01*
X7263552Y24993600D02*
X6477000Y24993600D01*
X6565900Y9664700D02*
X4229100Y9664700D01*
X4229100Y9664700D02*
X4089400Y9525000D01*
X11705600Y3200400D02*
X10261600Y3200400D01*
X9245600Y6985000D02*
X6565900Y9664700D01*
X6565900Y9664700D02*
X6477000Y9753600D01*
X9245600Y4216400D02*
X9245600Y6985000D01*
X10261600Y3200400D02*
X9245600Y4216400D01*
G36*
X50736129Y30928968D02*
X50679400Y30643773D01*
X50679400Y29326227D01*
X50858438Y28426141D01*
X41048738Y18616442D01*
X40960281Y18616519D01*
X39857257Y18160759D01*
X39012607Y17317582D01*
X38554922Y16215355D01*
X38553881Y15021881D01*
X39009641Y13918857D01*
X39852818Y13074207D01*
X40955045Y12616522D01*
X41305014Y12616217D01*
X41305014Y11776000D01*
X41409607Y11220133D01*
X41738124Y10709604D01*
X42239383Y10367108D01*
X42834400Y10246614D01*
X45334400Y10246614D01*
X45890267Y10351207D01*
X45922396Y10371882D01*
X45929383Y10367108D01*
X46524400Y10246614D01*
X49024400Y10246614D01*
X49580267Y10351207D01*
X50090796Y10679724D01*
X50156579Y10776000D01*
X50874395Y10776000D01*
X50874400Y10775999D01*
X51639767Y10928241D01*
X52191077Y11296614D01*
X54324400Y11296614D01*
X54880267Y11401207D01*
X55237269Y11630932D01*
X55238124Y11629604D01*
X55739383Y11287108D01*
X56334400Y11166614D01*
X59534400Y11166614D01*
X60090267Y11271207D01*
X60600796Y11599724D01*
X60943292Y12100983D01*
X61034570Y12551729D01*
X61359934Y12616448D01*
X62468519Y12615481D01*
X63571543Y13071241D01*
X64416193Y13914418D01*
X64873878Y15016645D01*
X64874919Y16210119D01*
X64618802Y16829971D01*
X66187014Y15261759D01*
X66187014Y13538200D01*
X66291607Y12982333D01*
X66620124Y12471804D01*
X67121383Y12129308D01*
X67716400Y12008814D01*
X70256400Y12008814D01*
X70812267Y12113407D01*
X71322796Y12441924D01*
X71665292Y12943183D01*
X71703600Y13132354D01*
X71703600Y6595199D01*
X70862730Y7437538D01*
X69565040Y7976386D01*
X68159924Y7977612D01*
X66861296Y7441030D01*
X65866862Y6448330D01*
X65328014Y5150640D01*
X65326788Y3745524D01*
X65863370Y2446896D01*
X66251588Y2058000D01*
X29616323Y2058000D01*
X29731386Y2626200D01*
X29731386Y3876200D01*
X29626793Y4432067D01*
X29568007Y4523423D01*
X29631386Y4836400D01*
X29631386Y6136400D01*
X29568790Y6469069D01*
X29712492Y6679383D01*
X29832986Y7274400D01*
X29832986Y8524400D01*
X29728393Y9080267D01*
X29692597Y9135895D01*
X29783786Y9586200D01*
X29783786Y10886200D01*
X29679193Y11442067D01*
X29595654Y11571891D01*
X29682186Y11999200D01*
X29682186Y13299200D01*
X29608895Y13688712D01*
X29661692Y13765983D01*
X29782186Y14361000D01*
X29782186Y15611000D01*
X29677593Y16166867D01*
X29624423Y16249496D01*
X29663292Y16306383D01*
X29783786Y16901400D01*
X29783786Y18201400D01*
X29680789Y18748784D01*
X29712492Y18795183D01*
X29832986Y19390200D01*
X29832986Y20640200D01*
X29728393Y21196067D01*
X29399876Y21706596D01*
X28898617Y22049092D01*
X28303600Y22169586D01*
X26803600Y22169586D01*
X26247733Y22064993D01*
X25737204Y21736476D01*
X25394708Y21235217D01*
X25274214Y20640200D01*
X25274214Y19496066D01*
X24787033Y19399159D01*
X24138186Y18965614D01*
X19409366Y14236794D01*
X19120910Y14668500D01*
X19432525Y15134865D01*
X19592378Y15938500D01*
X19432525Y16742135D01*
X19120910Y17208500D01*
X19432525Y17674865D01*
X19592378Y18478500D01*
X19432525Y19282135D01*
X19120910Y19748500D01*
X19432525Y20214865D01*
X19592378Y21018500D01*
X19432525Y21822135D01*
X18977302Y22503424D01*
X18296013Y22958647D01*
X17492378Y23118500D01*
X16594422Y23118500D01*
X16273552Y23054675D01*
X14062196Y25266032D01*
X14062196Y26162376D01*
X14585884Y25638688D01*
X14654275Y25294865D01*
X15109498Y24613576D01*
X15790787Y24158353D01*
X16594422Y23998500D01*
X17492378Y23998500D01*
X18296013Y24158353D01*
X18977302Y24613576D01*
X19432525Y25294865D01*
X19592378Y26098500D01*
X19432525Y26902135D01*
X19317871Y27073726D01*
X20059400Y26926227D01*
X20977840Y27108916D01*
X21329400Y27343821D01*
X21680960Y27108916D01*
X22599400Y26926227D01*
X23517840Y27108916D01*
X23869400Y27343821D01*
X24220960Y27108916D01*
X25139400Y26926227D01*
X26057840Y27108916D01*
X26409400Y27343821D01*
X26760960Y27108916D01*
X27679400Y26926227D01*
X28597840Y27108916D01*
X28949400Y27343821D01*
X29300960Y27108916D01*
X30219400Y26926227D01*
X31137840Y27108916D01*
X31489400Y27343821D01*
X31840960Y27108916D01*
X32759400Y26926227D01*
X33677840Y27108916D01*
X34029400Y27343821D01*
X34380960Y27108916D01*
X35299400Y26926227D01*
X36217840Y27108916D01*
X36569400Y27343821D01*
X36920960Y27108916D01*
X37839400Y26926227D01*
X38757840Y27108916D01*
X39109400Y27343821D01*
X39460960Y27108916D01*
X40379400Y26926227D01*
X41297840Y27108916D01*
X41649400Y27343821D01*
X42000960Y27108916D01*
X42919400Y26926227D01*
X43837840Y27108916D01*
X44189400Y27343821D01*
X44540960Y27108916D01*
X45459400Y26926227D01*
X46377840Y27108916D01*
X46729400Y27343821D01*
X47080960Y27108916D01*
X47999400Y26926227D01*
X48917840Y27108916D01*
X49696456Y27629171D01*
X50216711Y28407787D01*
X50399400Y29326227D01*
X50399400Y30643773D01*
X50244975Y31420122D01*
X50736129Y30928968D01*
X50736129Y30928968D01*
G37*
X50736129Y30928968D02*
X50679400Y30643773D01*
X50679400Y29326227D01*
X50858438Y28426141D01*
X41048738Y18616442D01*
X40960281Y18616519D01*
X39857257Y18160759D01*
X39012607Y17317582D01*
X38554922Y16215355D01*
X38553881Y15021881D01*
X39009641Y13918857D01*
X39852818Y13074207D01*
X40955045Y12616522D01*
X41305014Y12616217D01*
X41305014Y11776000D01*
X41409607Y11220133D01*
X41738124Y10709604D01*
X42239383Y10367108D01*
X42834400Y10246614D01*
X45334400Y10246614D01*
X45890267Y10351207D01*
X45922396Y10371882D01*
X45929383Y10367108D01*
X46524400Y10246614D01*
X49024400Y10246614D01*
X49580267Y10351207D01*
X50090796Y10679724D01*
X50156579Y10776000D01*
X50874395Y10776000D01*
X50874400Y10775999D01*
X51639767Y10928241D01*
X52191077Y11296614D01*
X54324400Y11296614D01*
X54880267Y11401207D01*
X55237269Y11630932D01*
X55238124Y11629604D01*
X55739383Y11287108D01*
X56334400Y11166614D01*
X59534400Y11166614D01*
X60090267Y11271207D01*
X60600796Y11599724D01*
X60943292Y12100983D01*
X61034570Y12551729D01*
X61359934Y12616448D01*
X62468519Y12615481D01*
X63571543Y13071241D01*
X64416193Y13914418D01*
X64873878Y15016645D01*
X64874919Y16210119D01*
X64618802Y16829971D01*
X66187014Y15261759D01*
X66187014Y13538200D01*
X66291607Y12982333D01*
X66620124Y12471804D01*
X67121383Y12129308D01*
X67716400Y12008814D01*
X70256400Y12008814D01*
X70812267Y12113407D01*
X71322796Y12441924D01*
X71665292Y12943183D01*
X71703600Y13132354D01*
X71703600Y6595199D01*
X70862730Y7437538D01*
X69565040Y7976386D01*
X68159924Y7977612D01*
X66861296Y7441030D01*
X65866862Y6448330D01*
X65328014Y5150640D01*
X65326788Y3745524D01*
X65863370Y2446896D01*
X66251588Y2058000D01*
X29616323Y2058000D01*
X29731386Y2626200D01*
X29731386Y3876200D01*
X29626793Y4432067D01*
X29568007Y4523423D01*
X29631386Y4836400D01*
X29631386Y6136400D01*
X29568790Y6469069D01*
X29712492Y6679383D01*
X29832986Y7274400D01*
X29832986Y8524400D01*
X29728393Y9080267D01*
X29692597Y9135895D01*
X29783786Y9586200D01*
X29783786Y10886200D01*
X29679193Y11442067D01*
X29595654Y11571891D01*
X29682186Y11999200D01*
X29682186Y13299200D01*
X29608895Y13688712D01*
X29661692Y13765983D01*
X29782186Y14361000D01*
X29782186Y15611000D01*
X29677593Y16166867D01*
X29624423Y16249496D01*
X29663292Y16306383D01*
X29783786Y16901400D01*
X29783786Y18201400D01*
X29680789Y18748784D01*
X29712492Y18795183D01*
X29832986Y19390200D01*
X29832986Y20640200D01*
X29728393Y21196067D01*
X29399876Y21706596D01*
X28898617Y22049092D01*
X28303600Y22169586D01*
X26803600Y22169586D01*
X26247733Y22064993D01*
X25737204Y21736476D01*
X25394708Y21235217D01*
X25274214Y20640200D01*
X25274214Y19496066D01*
X24787033Y19399159D01*
X24138186Y18965614D01*
X19409366Y14236794D01*
X19120910Y14668500D01*
X19432525Y15134865D01*
X19592378Y15938500D01*
X19432525Y16742135D01*
X19120910Y17208500D01*
X19432525Y17674865D01*
X19592378Y18478500D01*
X19432525Y19282135D01*
X19120910Y19748500D01*
X19432525Y20214865D01*
X19592378Y21018500D01*
X19432525Y21822135D01*
X18977302Y22503424D01*
X18296013Y22958647D01*
X17492378Y23118500D01*
X16594422Y23118500D01*
X16273552Y23054675D01*
X14062196Y25266032D01*
X14062196Y26162376D01*
X14585884Y25638688D01*
X14654275Y25294865D01*
X15109498Y24613576D01*
X15790787Y24158353D01*
X16594422Y23998500D01*
X17492378Y23998500D01*
X18296013Y24158353D01*
X18977302Y24613576D01*
X19432525Y25294865D01*
X19592378Y26098500D01*
X19432525Y26902135D01*
X19317871Y27073726D01*
X20059400Y26926227D01*
X20977840Y27108916D01*
X21329400Y27343821D01*
X21680960Y27108916D01*
X22599400Y26926227D01*
X23517840Y27108916D01*
X23869400Y27343821D01*
X24220960Y27108916D01*
X25139400Y26926227D01*
X26057840Y27108916D01*
X26409400Y27343821D01*
X26760960Y27108916D01*
X27679400Y26926227D01*
X28597840Y27108916D01*
X28949400Y27343821D01*
X29300960Y27108916D01*
X30219400Y26926227D01*
X31137840Y27108916D01*
X31489400Y27343821D01*
X31840960Y27108916D01*
X32759400Y26926227D01*
X33677840Y27108916D01*
X34029400Y27343821D01*
X34380960Y27108916D01*
X35299400Y26926227D01*
X36217840Y27108916D01*
X36569400Y27343821D01*
X36920960Y27108916D01*
X37839400Y26926227D01*
X38757840Y27108916D01*
X39109400Y27343821D01*
X39460960Y27108916D01*
X40379400Y26926227D01*
X41297840Y27108916D01*
X41649400Y27343821D01*
X42000960Y27108916D01*
X42919400Y26926227D01*
X43837840Y27108916D01*
X44189400Y27343821D01*
X44540960Y27108916D01*
X45459400Y26926227D01*
X46377840Y27108916D01*
X46729400Y27343821D01*
X47080960Y27108916D01*
X47999400Y26926227D01*
X48917840Y27108916D01*
X49696456Y27629171D01*
X50216711Y28407787D01*
X50399400Y29326227D01*
X50399400Y30643773D01*
X50244975Y31420122D01*
X50736129Y30928968D01*
G36*
X41459400Y42985000D02*
X41718104Y42985000D01*
X42328023Y42375082D01*
X42755186Y41735786D01*
X43404033Y41302241D01*
X44169400Y41150000D01*
X44286902Y41150000D01*
X44781602Y41051598D01*
X45276301Y41150000D01*
X58268848Y41150000D01*
X61980400Y37438449D01*
X61980400Y36723809D01*
X61834217Y36823692D01*
X61239200Y36944186D01*
X58039200Y36944186D01*
X57483333Y36839593D01*
X56972804Y36511076D01*
X56630308Y36009817D01*
X56509814Y35414800D01*
X56509814Y31814800D01*
X56614407Y31258933D01*
X56942924Y30748404D01*
X57444183Y30405908D01*
X58039200Y30285414D01*
X61239200Y30285414D01*
X61795067Y30390007D01*
X61980400Y30509266D01*
X61980400Y25146000D01*
X62001014Y25042366D01*
X62001014Y23896000D01*
X62105607Y23340133D01*
X62434124Y22829604D01*
X62935383Y22487108D01*
X63530400Y22366614D01*
X64430400Y22366614D01*
X64986267Y22471207D01*
X65435542Y22760308D01*
X65835383Y22487108D01*
X66430400Y22366614D01*
X67330400Y22366614D01*
X67388756Y22377594D01*
X67792600Y22295814D01*
X70332600Y22295814D01*
X70888467Y22400407D01*
X71398996Y22728924D01*
X71703600Y23174726D01*
X71703600Y16514983D01*
X71681193Y16634067D01*
X71352676Y17144596D01*
X70851417Y17487092D01*
X70256400Y17607586D01*
X69498041Y17607586D01*
X65625414Y21480214D01*
X64976567Y21913759D01*
X64211200Y22066001D01*
X64211195Y22066000D01*
X62520620Y22066000D01*
X62403096Y22183729D01*
X61484761Y22565055D01*
X60490402Y22565923D01*
X59571402Y22186200D01*
X58867671Y21483696D01*
X58486345Y20565361D01*
X58485477Y19571002D01*
X58865200Y18652002D01*
X59567704Y17948271D01*
X59847863Y17831939D01*
X59789541Y17773719D01*
X59534400Y17825386D01*
X56334400Y17825386D01*
X55778533Y17720793D01*
X55421531Y17491068D01*
X55420676Y17492396D01*
X55365400Y17530165D01*
X55365400Y18530780D01*
X55483129Y18648304D01*
X55864455Y19566639D01*
X55865323Y20560998D01*
X55485600Y21479998D01*
X54783096Y22183729D01*
X53864761Y22565055D01*
X52870402Y22565923D01*
X51951402Y22186200D01*
X51247671Y21483696D01*
X50866345Y20565361D01*
X50865477Y19571002D01*
X51245200Y18652002D01*
X51365400Y18531592D01*
X51365400Y17955386D01*
X51124400Y17955386D01*
X50568533Y17850793D01*
X50058004Y17522276D01*
X49715508Y17021017D01*
X49595014Y16426000D01*
X49595014Y15189834D01*
X49024400Y15305386D01*
X46524400Y15305386D01*
X45968533Y15200793D01*
X45936404Y15180118D01*
X45929417Y15184892D01*
X45334400Y15305386D01*
X44693441Y15305386D01*
X44554251Y15444576D01*
X44554919Y16210119D01*
X44480172Y16391020D01*
X54493611Y26404460D01*
X54493614Y26404462D01*
X54927159Y27053309D01*
X55079400Y27818676D01*
X55079400Y28082558D01*
X55296711Y28407787D01*
X55479400Y29326227D01*
X55479400Y30643773D01*
X55296711Y31562213D01*
X54945344Y32088071D01*
X54927159Y32179491D01*
X54913064Y32200586D01*
X54493614Y32828338D01*
X54493611Y32828340D01*
X49355736Y37966216D01*
X48706889Y38399761D01*
X47941522Y38552003D01*
X47941517Y38552002D01*
X41975026Y38552002D01*
X41034400Y39492628D01*
X41034400Y39822437D01*
X41193292Y40054983D01*
X41313786Y40650000D01*
X41313786Y41900000D01*
X41209193Y42455867D01*
X40884400Y42960609D01*
X40884400Y43005614D01*
X41355767Y43005614D01*
X41459400Y42985000D01*
X41459400Y42985000D01*
G37*
X41459400Y42985000D02*
X41718104Y42985000D01*
X42328023Y42375082D01*
X42755186Y41735786D01*
X43404033Y41302241D01*
X44169400Y41150000D01*
X44286902Y41150000D01*
X44781602Y41051598D01*
X45276301Y41150000D01*
X58268848Y41150000D01*
X61980400Y37438449D01*
X61980400Y36723809D01*
X61834217Y36823692D01*
X61239200Y36944186D01*
X58039200Y36944186D01*
X57483333Y36839593D01*
X56972804Y36511076D01*
X56630308Y36009817D01*
X56509814Y35414800D01*
X56509814Y31814800D01*
X56614407Y31258933D01*
X56942924Y30748404D01*
X57444183Y30405908D01*
X58039200Y30285414D01*
X61239200Y30285414D01*
X61795067Y30390007D01*
X61980400Y30509266D01*
X61980400Y25146000D01*
X62001014Y25042366D01*
X62001014Y23896000D01*
X62105607Y23340133D01*
X62434124Y22829604D01*
X62935383Y22487108D01*
X63530400Y22366614D01*
X64430400Y22366614D01*
X64986267Y22471207D01*
X65435542Y22760308D01*
X65835383Y22487108D01*
X66430400Y22366614D01*
X67330400Y22366614D01*
X67388756Y22377594D01*
X67792600Y22295814D01*
X70332600Y22295814D01*
X70888467Y22400407D01*
X71398996Y22728924D01*
X71703600Y23174726D01*
X71703600Y16514983D01*
X71681193Y16634067D01*
X71352676Y17144596D01*
X70851417Y17487092D01*
X70256400Y17607586D01*
X69498041Y17607586D01*
X65625414Y21480214D01*
X64976567Y21913759D01*
X64211200Y22066001D01*
X64211195Y22066000D01*
X62520620Y22066000D01*
X62403096Y22183729D01*
X61484761Y22565055D01*
X60490402Y22565923D01*
X59571402Y22186200D01*
X58867671Y21483696D01*
X58486345Y20565361D01*
X58485477Y19571002D01*
X58865200Y18652002D01*
X59567704Y17948271D01*
X59847863Y17831939D01*
X59789541Y17773719D01*
X59534400Y17825386D01*
X56334400Y17825386D01*
X55778533Y17720793D01*
X55421531Y17491068D01*
X55420676Y17492396D01*
X55365400Y17530165D01*
X55365400Y18530780D01*
X55483129Y18648304D01*
X55864455Y19566639D01*
X55865323Y20560998D01*
X55485600Y21479998D01*
X54783096Y22183729D01*
X53864761Y22565055D01*
X52870402Y22565923D01*
X51951402Y22186200D01*
X51247671Y21483696D01*
X50866345Y20565361D01*
X50865477Y19571002D01*
X51245200Y18652002D01*
X51365400Y18531592D01*
X51365400Y17955386D01*
X51124400Y17955386D01*
X50568533Y17850793D01*
X50058004Y17522276D01*
X49715508Y17021017D01*
X49595014Y16426000D01*
X49595014Y15189834D01*
X49024400Y15305386D01*
X46524400Y15305386D01*
X45968533Y15200793D01*
X45936404Y15180118D01*
X45929417Y15184892D01*
X45334400Y15305386D01*
X44693441Y15305386D01*
X44554251Y15444576D01*
X44554919Y16210119D01*
X44480172Y16391020D01*
X54493611Y26404460D01*
X54493614Y26404462D01*
X54927159Y27053309D01*
X55079400Y27818676D01*
X55079400Y28082558D01*
X55296711Y28407787D01*
X55479400Y29326227D01*
X55479400Y30643773D01*
X55296711Y31562213D01*
X54945344Y32088071D01*
X54927159Y32179491D01*
X54913064Y32200586D01*
X54493614Y32828338D01*
X54493611Y32828340D01*
X49355736Y37966216D01*
X48706889Y38399761D01*
X47941522Y38552003D01*
X47941517Y38552002D01*
X41975026Y38552002D01*
X41034400Y39492628D01*
X41034400Y39822437D01*
X41193292Y40054983D01*
X41313786Y40650000D01*
X41313786Y41900000D01*
X41209193Y42455867D01*
X40884400Y42960609D01*
X40884400Y43005614D01*
X41355767Y43005614D01*
X41459400Y42985000D01*
G36*
X15694583Y43711908D02*
X16289600Y43591414D01*
X17152415Y43591414D01*
X9147980Y35586980D01*
X8714435Y34938133D01*
X8562193Y34172766D01*
X8562194Y34172761D01*
X8562194Y26485037D01*
X8028919Y26841359D01*
X7470648Y26952407D01*
X7419193Y27225867D01*
X7090676Y27736396D01*
X6589417Y28078892D01*
X5994400Y28199386D01*
X2184400Y28199386D01*
X1702400Y28108692D01*
X1702400Y39315738D01*
X1739739Y39225371D01*
X2518272Y38445477D01*
X3535996Y38022881D01*
X4637970Y38021920D01*
X5656429Y38442739D01*
X5726813Y38513000D01*
X7010395Y38513000D01*
X7010400Y38512999D01*
X7775767Y38665241D01*
X8424614Y39098786D01*
X8626477Y39300649D01*
X8646400Y39296614D01*
X9946400Y39296614D01*
X10502267Y39401207D01*
X11012796Y39729724D01*
X11355292Y40230983D01*
X11475786Y40826000D01*
X11475786Y42276000D01*
X12551395Y42276000D01*
X12551400Y42275999D01*
X13316767Y42428241D01*
X13965614Y42861786D01*
X14874627Y43770800D01*
X15608392Y43770800D01*
X15694583Y43711908D01*
X15694583Y43711908D01*
G37*
X15694583Y43711908D02*
X16289600Y43591414D01*
X17152415Y43591414D01*
X9147980Y35586980D01*
X8714435Y34938133D01*
X8562193Y34172766D01*
X8562194Y34172761D01*
X8562194Y26485037D01*
X8028919Y26841359D01*
X7470648Y26952407D01*
X7419193Y27225867D01*
X7090676Y27736396D01*
X6589417Y28078892D01*
X5994400Y28199386D01*
X2184400Y28199386D01*
X1702400Y28108692D01*
X1702400Y39315738D01*
X1739739Y39225371D01*
X2518272Y38445477D01*
X3535996Y38022881D01*
X4637970Y38021920D01*
X5656429Y38442739D01*
X5726813Y38513000D01*
X7010395Y38513000D01*
X7010400Y38512999D01*
X7775767Y38665241D01*
X8424614Y39098786D01*
X8626477Y39300649D01*
X8646400Y39296614D01*
X9946400Y39296614D01*
X10502267Y39401207D01*
X11012796Y39729724D01*
X11355292Y40230983D01*
X11475786Y40826000D01*
X11475786Y42276000D01*
X12551395Y42276000D01*
X12551400Y42275999D01*
X13316767Y42428241D01*
X13965614Y42861786D01*
X14874627Y43770800D01*
X15608392Y43770800D01*
X15694583Y43711908D01*
G36*
X36755014Y40650000D02*
X36859607Y40094133D01*
X37034400Y39822497D01*
X37034400Y38664205D01*
X37034399Y38664200D01*
X37186641Y37898833D01*
X37620186Y37249986D01*
X39732384Y35137788D01*
X40381231Y34704243D01*
X41146598Y34552001D01*
X41146603Y34552002D01*
X47113094Y34552002D01*
X48775749Y32889348D01*
X47999400Y33043773D01*
X47080960Y32861084D01*
X46729400Y32626179D01*
X46377840Y32861084D01*
X45459400Y33043773D01*
X44540960Y32861084D01*
X44189400Y32626179D01*
X43837840Y32861084D01*
X42919400Y33043773D01*
X42000960Y32861084D01*
X41649400Y32626179D01*
X41297840Y32861084D01*
X40379400Y33043773D01*
X39460960Y32861084D01*
X39109400Y32626179D01*
X38757840Y32861084D01*
X37839400Y33043773D01*
X36920960Y32861084D01*
X36569400Y32626179D01*
X36217840Y32861084D01*
X35299400Y33043773D01*
X34380960Y32861084D01*
X34029400Y32626179D01*
X33677840Y32861084D01*
X32759400Y33043773D01*
X31840960Y32861084D01*
X31489400Y32626179D01*
X31137840Y32861084D01*
X30219400Y33043773D01*
X29300960Y32861084D01*
X28949400Y32626179D01*
X28597840Y32861084D01*
X27679400Y33043773D01*
X26760960Y32861084D01*
X26409400Y32626179D01*
X26057840Y32861084D01*
X25139400Y33043773D01*
X24220960Y32861084D01*
X23869400Y32626179D01*
X23517840Y32861084D01*
X22599400Y33043773D01*
X21680960Y32861084D01*
X21329400Y32626179D01*
X20977840Y32861084D01*
X20059400Y33043773D01*
X19140960Y32861084D01*
X18789400Y32626179D01*
X18440880Y32859053D01*
X21491327Y35909500D01*
X22060688Y35909500D01*
X22563422Y35809500D01*
X23461378Y35809500D01*
X23964112Y35909500D01*
X25565095Y35909500D01*
X25565100Y35909499D01*
X26330467Y36061741D01*
X26724184Y36324814D01*
X26862800Y36324814D01*
X27418667Y36429407D01*
X27690303Y36604200D01*
X27866054Y36604200D01*
X27936395Y36557200D01*
X27936633Y36557041D01*
X28702000Y36404800D01*
X29467367Y36557041D01*
X30116214Y36990586D01*
X30549759Y37639433D01*
X30702000Y38404800D01*
X30702000Y41682836D01*
X31294400Y41564999D01*
X32048501Y41715000D01*
X36059400Y41715000D01*
X36163033Y41735614D01*
X36755014Y41735614D01*
X36755014Y40650000D01*
X36755014Y40650000D01*
G37*
X36755014Y40650000D02*
X36859607Y40094133D01*
X37034400Y39822497D01*
X37034400Y38664205D01*
X37034399Y38664200D01*
X37186641Y37898833D01*
X37620186Y37249986D01*
X39732384Y35137788D01*
X40381231Y34704243D01*
X41146598Y34552001D01*
X41146603Y34552002D01*
X47113094Y34552002D01*
X48775749Y32889348D01*
X47999400Y33043773D01*
X47080960Y32861084D01*
X46729400Y32626179D01*
X46377840Y32861084D01*
X45459400Y33043773D01*
X44540960Y32861084D01*
X44189400Y32626179D01*
X43837840Y32861084D01*
X42919400Y33043773D01*
X42000960Y32861084D01*
X41649400Y32626179D01*
X41297840Y32861084D01*
X40379400Y33043773D01*
X39460960Y32861084D01*
X39109400Y32626179D01*
X38757840Y32861084D01*
X37839400Y33043773D01*
X36920960Y32861084D01*
X36569400Y32626179D01*
X36217840Y32861084D01*
X35299400Y33043773D01*
X34380960Y32861084D01*
X34029400Y32626179D01*
X33677840Y32861084D01*
X32759400Y33043773D01*
X31840960Y32861084D01*
X31489400Y32626179D01*
X31137840Y32861084D01*
X30219400Y33043773D01*
X29300960Y32861084D01*
X28949400Y32626179D01*
X28597840Y32861084D01*
X27679400Y33043773D01*
X26760960Y32861084D01*
X26409400Y32626179D01*
X26057840Y32861084D01*
X25139400Y33043773D01*
X24220960Y32861084D01*
X23869400Y32626179D01*
X23517840Y32861084D01*
X22599400Y33043773D01*
X21680960Y32861084D01*
X21329400Y32626179D01*
X20977840Y32861084D01*
X20059400Y33043773D01*
X19140960Y32861084D01*
X18789400Y32626179D01*
X18440880Y32859053D01*
X21491327Y35909500D01*
X22060688Y35909500D01*
X22563422Y35809500D01*
X23461378Y35809500D01*
X23964112Y35909500D01*
X25565095Y35909500D01*
X25565100Y35909499D01*
X26330467Y36061741D01*
X26724184Y36324814D01*
X26862800Y36324814D01*
X27418667Y36429407D01*
X27690303Y36604200D01*
X27866054Y36604200D01*
X27936395Y36557200D01*
X27936633Y36557041D01*
X28702000Y36404800D01*
X29467367Y36557041D01*
X30116214Y36990586D01*
X30549759Y37639433D01*
X30702000Y38404800D01*
X30702000Y41682836D01*
X31294400Y41564999D01*
X32048501Y41715000D01*
X36059400Y41715000D01*
X36163033Y41735614D01*
X36755014Y41735614D01*
X36755014Y40650000D01*
G36*
X24033414Y40655159D02*
X24033414Y40554200D01*
X24138007Y39998333D01*
X24161996Y39961054D01*
X24153908Y39949217D01*
X24145865Y39909500D01*
X23964112Y39909500D01*
X23461378Y40009500D01*
X22563422Y40009500D01*
X22060688Y39909500D01*
X21248679Y39909500D01*
X22284217Y40945037D01*
X22563422Y40889500D01*
X23461378Y40889500D01*
X23743045Y40945527D01*
X24033414Y40655159D01*
X24033414Y40655159D01*
G37*
X24033414Y40655159D02*
X24033414Y40554200D01*
X24138007Y39998333D01*
X24161996Y39961054D01*
X24153908Y39949217D01*
X24145865Y39909500D01*
X23964112Y39909500D01*
X23461378Y40009500D01*
X22563422Y40009500D01*
X22060688Y39909500D01*
X21248679Y39909500D01*
X22284217Y40945037D01*
X22563422Y40889500D01*
X23461378Y40889500D01*
X23743045Y40945527D01*
X24033414Y40655159D01*
G36*
X71703600Y56888530D02*
X71624730Y56967538D01*
X70327040Y57506386D01*
X68921924Y57507612D01*
X67623296Y56971030D01*
X66628862Y55978330D01*
X66090014Y54680640D01*
X66088788Y53275524D01*
X66625370Y51976896D01*
X67618070Y50982462D01*
X68915760Y50443614D01*
X70320876Y50442388D01*
X71619504Y50978970D01*
X71703600Y51062919D01*
X71703600Y40494571D01*
X71504876Y40803396D01*
X71003617Y41145892D01*
X70408600Y41266386D01*
X67208600Y41266386D01*
X66652733Y41161793D01*
X66277008Y40920020D01*
X61231214Y45965814D01*
X61231211Y45965816D01*
X60612814Y46584214D01*
X59963967Y47017759D01*
X59198600Y47170001D01*
X59198595Y47170000D01*
X44725696Y47170000D01*
X44482548Y47413148D01*
X43882365Y47814177D01*
X43731969Y47844093D01*
X43659193Y48230867D01*
X43330676Y48741396D01*
X42829417Y49083892D01*
X42234400Y49204386D01*
X40684400Y49204386D01*
X40128533Y49099793D01*
X39618004Y48771276D01*
X39275508Y48270017D01*
X39155014Y47675000D01*
X39155014Y47647501D01*
X38905565Y47814177D01*
X38315514Y47931546D01*
X38259193Y48230867D01*
X38059196Y48541671D01*
X38068292Y48554983D01*
X38188786Y49150000D01*
X38188786Y50450000D01*
X38084193Y51005867D01*
X37755676Y51516396D01*
X37254417Y51858892D01*
X36659400Y51979386D01*
X35498786Y51979386D01*
X35498786Y52365887D01*
X36217840Y52508916D01*
X36569400Y52743821D01*
X36920960Y52508916D01*
X37839400Y52326227D01*
X37989422Y52356068D01*
X37981566Y52337148D01*
X37980837Y51501717D01*
X38299869Y50729600D01*
X38890093Y50138345D01*
X39661652Y49817966D01*
X40497083Y49817237D01*
X40801453Y49943000D01*
X52273195Y49943000D01*
X52273200Y49942999D01*
X53038567Y50095241D01*
X53687414Y50528786D01*
X54493614Y51334986D01*
X54927159Y51983833D01*
X55079401Y52749200D01*
X55079400Y52749205D01*
X55079400Y53482558D01*
X55296711Y53807787D01*
X55479400Y54726227D01*
X55479400Y56043773D01*
X55296711Y56962213D01*
X54776456Y57740829D01*
X54559192Y57886000D01*
X71703600Y57886000D01*
X71703600Y56888530D01*
X71703600Y56888530D01*
G37*
X71703600Y56888530D02*
X71624730Y56967538D01*
X70327040Y57506386D01*
X68921924Y57507612D01*
X67623296Y56971030D01*
X66628862Y55978330D01*
X66090014Y54680640D01*
X66088788Y53275524D01*
X66625370Y51976896D01*
X67618070Y50982462D01*
X68915760Y50443614D01*
X70320876Y50442388D01*
X71619504Y50978970D01*
X71703600Y51062919D01*
X71703600Y40494571D01*
X71504876Y40803396D01*
X71003617Y41145892D01*
X70408600Y41266386D01*
X67208600Y41266386D01*
X66652733Y41161793D01*
X66277008Y40920020D01*
X61231214Y45965814D01*
X61231211Y45965816D01*
X60612814Y46584214D01*
X59963967Y47017759D01*
X59198600Y47170001D01*
X59198595Y47170000D01*
X44725696Y47170000D01*
X44482548Y47413148D01*
X43882365Y47814177D01*
X43731969Y47844093D01*
X43659193Y48230867D01*
X43330676Y48741396D01*
X42829417Y49083892D01*
X42234400Y49204386D01*
X40684400Y49204386D01*
X40128533Y49099793D01*
X39618004Y48771276D01*
X39275508Y48270017D01*
X39155014Y47675000D01*
X39155014Y47647501D01*
X38905565Y47814177D01*
X38315514Y47931546D01*
X38259193Y48230867D01*
X38059196Y48541671D01*
X38068292Y48554983D01*
X38188786Y49150000D01*
X38188786Y50450000D01*
X38084193Y51005867D01*
X37755676Y51516396D01*
X37254417Y51858892D01*
X36659400Y51979386D01*
X35498786Y51979386D01*
X35498786Y52365887D01*
X36217840Y52508916D01*
X36569400Y52743821D01*
X36920960Y52508916D01*
X37839400Y52326227D01*
X37989422Y52356068D01*
X37981566Y52337148D01*
X37980837Y51501717D01*
X38299869Y50729600D01*
X38890093Y50138345D01*
X39661652Y49817966D01*
X40497083Y49817237D01*
X40801453Y49943000D01*
X52273195Y49943000D01*
X52273200Y49942999D01*
X53038567Y50095241D01*
X53687414Y50528786D01*
X54493614Y51334986D01*
X54927159Y51983833D01*
X55079401Y52749200D01*
X55079400Y52749205D01*
X55079400Y53482558D01*
X55296711Y53807787D01*
X55479400Y54726227D01*
X55479400Y56043773D01*
X55296711Y56962213D01*
X54776456Y57740829D01*
X54559192Y57886000D01*
X71703600Y57886000D01*
X71703600Y56888530D01*
G36*
X32459400Y47620614D02*
X33755014Y47620614D01*
X33755014Y47075000D01*
X33820363Y46727701D01*
X33755014Y46405000D01*
X33755014Y45805000D01*
X33828397Y45415000D01*
X32369400Y45415000D01*
X32369400Y47638839D01*
X32459400Y47620614D01*
X32459400Y47620614D01*
G37*
X32459400Y47620614D02*
X33755014Y47620614D01*
X33755014Y47075000D01*
X33820363Y46727701D01*
X33755014Y46405000D01*
X33755014Y45805000D01*
X33828397Y45415000D01*
X32369400Y45415000D01*
X32369400Y47638839D01*
X32459400Y47620614D01*
G36*
X51382344Y57740829D02*
X50862089Y56962213D01*
X50679400Y56043773D01*
X50679400Y54726227D01*
X50835193Y53943000D01*
X50243607Y53943000D01*
X50399400Y54726227D01*
X50399400Y56043773D01*
X50216711Y56962213D01*
X49696456Y57740829D01*
X49479192Y57886000D01*
X51599608Y57886000D01*
X51382344Y57740829D01*
X51382344Y57740829D01*
G37*
X51382344Y57740829D02*
X50862089Y56962213D01*
X50679400Y56043773D01*
X50679400Y54726227D01*
X50835193Y53943000D01*
X50243607Y53943000D01*
X50399400Y54726227D01*
X50399400Y56043773D01*
X50216711Y56962213D01*
X49696456Y57740829D01*
X49479192Y57886000D01*
X51599608Y57886000D01*
X51382344Y57740829D01*
M02*
