G04 #@! TF.FileFunction,Copper,L2,Bot,Signal*
%FSLAX46Y46*%
G04 Gerber Fmt 4.6, Leading zero omitted, Abs format (unit mm)*
G04 Created by KiCad (PCBNEW 4.0.6) date Wednesday, 03 November 2021 'AMt' 08:45:07*
%MOMM*%
%LPD*%
G01*
G04 APERTURE LIST*
%ADD10C,0.100000*%
%ADD11R,1.250000X1.500000*%
%ADD12R,2.500000X2.000000*%
%ADD13R,3.600000X3.200000*%
%ADD14R,3.200000X3.600000*%
%ADD15R,2.540000X2.540000*%
%ADD16C,2.540000*%
%ADD17C,3.810000*%
%ADD18R,3.810000X3.810000*%
%ADD19R,1.300000X1.500000*%
%ADD20R,1.500000X1.300000*%
%ADD21R,0.900000X2.500000*%
%ADD22C,1.998980*%
%ADD23O,1.800000X3.000000*%
%ADD24O,2.000000X1.200000*%
%ADD25C,3.000000*%
%ADD26R,1.550000X0.600000*%
%ADD27C,4.064000*%
%ADD28R,1.727200X1.727200*%
%ADD29O,1.727200X1.727200*%
%ADD30C,1.200000*%
%ADD31C,1.000000*%
%ADD32C,0.700000*%
G04 APERTURE END LIST*
D10*
D11*
X15521000Y26469500D03*
X15521000Y23969500D03*
X19931000Y26519500D03*
X19931000Y24019500D03*
X22001000Y26579500D03*
X22001000Y24079500D03*
X26411000Y26469500D03*
X26411000Y23969500D03*
X30661000Y26469500D03*
X30661000Y23969500D03*
X35131000Y26579500D03*
X35131000Y24079500D03*
X41783000Y29761500D03*
X41783000Y27261500D03*
D12*
X45971000Y10299500D03*
X45971000Y6299500D03*
X42281000Y10299500D03*
X42281000Y6299500D03*
D13*
X52371000Y37959500D03*
X44171000Y37959500D03*
X55111000Y27419500D03*
X46911000Y27419500D03*
D14*
X56131000Y12019500D03*
X56131000Y3819500D03*
X50921000Y12149500D03*
X50921000Y3949500D03*
D15*
X19561000Y50479500D03*
D16*
X24641000Y50479500D03*
X29721000Y50479500D03*
D17*
X10791000Y4639500D03*
X15871000Y4639500D03*
D18*
X5711000Y4639500D03*
D17*
X20951000Y4639500D03*
X26031000Y4639500D03*
X31111000Y4639500D03*
D15*
X64391000Y20379500D03*
D16*
X64391000Y25459500D03*
D15*
X64901000Y37269500D03*
D16*
X64901000Y42349500D03*
D19*
X13341000Y26619500D03*
X13341000Y23919500D03*
X17701000Y26619500D03*
X17701000Y23919500D03*
X24231000Y26619500D03*
X24231000Y23919500D03*
X28431000Y26569500D03*
X28431000Y23869500D03*
X32841000Y26509500D03*
X32841000Y23809500D03*
X37201000Y26619500D03*
X37201000Y23919500D03*
X15021000Y13609500D03*
X15021000Y10909500D03*
X18371000Y13719500D03*
X18371000Y11019500D03*
X21081000Y13729500D03*
X21081000Y11029500D03*
X24511000Y13729500D03*
X24511000Y11029500D03*
D20*
X20751000Y48579500D03*
X23451000Y48579500D03*
D19*
X27691000Y13609500D03*
X27691000Y10909500D03*
X30731000Y13609500D03*
X30731000Y10909500D03*
D20*
X30771000Y38179500D03*
X33471000Y38179500D03*
X33481000Y40319500D03*
X30781000Y40319500D03*
D21*
X61391000Y37269500D03*
X58491000Y37269500D03*
X61521000Y41849500D03*
X58621000Y41849500D03*
D22*
X64771000Y8189500D03*
X64771000Y15809500D03*
D23*
X15081000Y43764500D03*
X15081000Y18364500D03*
X17621000Y43764500D03*
X17621000Y18364500D03*
X20161000Y43764500D03*
X20161000Y18364500D03*
X22701000Y43764500D03*
X22701000Y18364500D03*
X25241000Y43764500D03*
X25241000Y18364500D03*
X27781000Y43764500D03*
X27781000Y18364500D03*
X30321000Y43764500D03*
X30321000Y18364500D03*
X32861000Y43764500D03*
X32861000Y18364500D03*
X35401000Y43764500D03*
X35401000Y18364500D03*
X37941000Y43764500D03*
X37941000Y18364500D03*
X40481000Y43764500D03*
X40481000Y18364500D03*
X43021000Y43764500D03*
X43021000Y18364500D03*
X45561000Y43764500D03*
X45561000Y18364500D03*
X48101000Y43764500D03*
X48101000Y18364500D03*
X50641000Y43764500D03*
X50641000Y18364500D03*
D24*
X10921000Y32449500D03*
X10921000Y34989500D03*
X10921000Y37529500D03*
X10921000Y40069500D03*
X10921000Y42609500D03*
X10921000Y45149500D03*
D25*
X39751000Y2979500D03*
X60071000Y13139500D03*
X39751000Y13139500D03*
X59911000Y3059500D03*
D26*
X33621000Y31944500D03*
X33621000Y33214500D03*
X33621000Y34484500D03*
X33621000Y35754500D03*
X39021000Y35754500D03*
X39021000Y34484500D03*
X39021000Y33214500D03*
X39021000Y31944500D03*
D27*
X7371000Y50099500D03*
X64771000Y50739500D03*
X65401000Y4129500D03*
X7241000Y13019500D03*
D28*
X35561000Y12759500D03*
D29*
X35561000Y10219500D03*
D20*
X5901000Y37569500D03*
X8601000Y37569500D03*
X6021000Y40139500D03*
X8721000Y40139500D03*
D30*
X46609000Y48069500D03*
X52451000Y48069500D03*
X29941000Y33829500D03*
X29941000Y29019500D03*
D31*
X39751000Y2979500D02*
X38095000Y2979500D01*
X1651000Y18859500D02*
X9411000Y26619500D01*
X1651000Y1587500D02*
X1651000Y18859500D01*
X2159000Y1079500D02*
X1651000Y1587500D01*
X36195000Y1079500D02*
X2159000Y1079500D01*
X38095000Y2979500D02*
X36195000Y1079500D01*
X55507000Y47823500D02*
X52697000Y47823500D01*
X52451000Y48069500D02*
X52697000Y47823500D01*
X29721000Y50479500D02*
X44199000Y50479500D01*
X44199000Y50479500D02*
X46609000Y48069500D01*
X48101000Y46577500D02*
X48101000Y43764500D01*
X46609000Y48069500D02*
X48101000Y46577500D01*
X46911000Y27419500D02*
X47028324Y27419500D01*
X47028324Y27419500D02*
X51524324Y22923500D01*
X64391000Y25459500D02*
X61331000Y25459500D01*
X61083000Y25459500D02*
X61331000Y25459500D01*
X58547000Y22923500D02*
X61083000Y25459500D01*
X51524324Y22923500D02*
X58547000Y22923500D01*
X41783000Y29761500D02*
X42311000Y29761500D01*
X42311000Y29761500D02*
X44653000Y27419500D01*
X44653000Y27419500D02*
X46911000Y27419500D01*
X40975500Y29990000D02*
X41554500Y29990000D01*
X41554500Y29990000D02*
X41783000Y29761500D01*
X37201000Y26619500D02*
X38441000Y26619500D01*
X48101000Y21159500D02*
X48101000Y18364500D01*
X48051000Y21209500D02*
X48101000Y21159500D01*
X39431000Y21209500D02*
X48051000Y21209500D01*
X39201000Y21439500D02*
X39431000Y21209500D01*
X39201000Y25859500D02*
X39201000Y21439500D01*
X38441000Y26619500D02*
X39201000Y25859500D01*
D32*
X41101000Y29864500D02*
X40975500Y29990000D01*
X40975500Y29990000D02*
X39021000Y31944500D01*
D31*
X59911000Y3059500D02*
X61381000Y3059500D01*
X61381000Y3059500D02*
X63581000Y859500D01*
X66861000Y25459500D02*
X64391000Y25459500D01*
X68671000Y23649500D02*
X66861000Y25459500D01*
X68671000Y2709500D02*
X68671000Y23649500D01*
X66821000Y859500D02*
X68671000Y2709500D01*
X63581000Y859500D02*
X66821000Y859500D01*
X64391000Y25459500D02*
X64391000Y26309500D01*
X64391000Y26309500D02*
X69111000Y31029500D01*
X56881000Y46449500D02*
X55507000Y47823500D01*
X55507000Y47823500D02*
X55481000Y47849500D01*
X68271000Y46449500D02*
X56881000Y46449500D01*
X69111000Y45609500D02*
X68271000Y46449500D01*
X69111000Y31029500D02*
X69111000Y45609500D01*
X13341000Y26619500D02*
X9411000Y26619500D01*
X42281000Y6299500D02*
X42281000Y5509500D01*
X42281000Y5509500D02*
X39751000Y2979500D01*
X45971000Y6299500D02*
X42281000Y6299500D01*
X50921000Y3949500D02*
X48321000Y3949500D01*
X48321000Y3949500D02*
X45971000Y6299500D01*
X56131000Y3819500D02*
X51051000Y3819500D01*
X51051000Y3819500D02*
X50921000Y3949500D01*
X59911000Y3059500D02*
X56891000Y3059500D01*
X56891000Y3059500D02*
X56131000Y3819500D01*
X30611000Y26519500D02*
X30611000Y28349500D01*
D32*
X30556000Y33214500D02*
X29941000Y33829500D01*
D31*
X29941000Y29019500D02*
X30611000Y28349500D01*
D32*
X30556000Y33214500D02*
X33621000Y33214500D01*
D31*
X30611000Y26519500D02*
X30661000Y26469500D01*
X13291000Y26669500D02*
X13291000Y28739500D01*
X13291000Y28739500D02*
X14291000Y29739500D01*
X14291000Y29739500D02*
X14291000Y34059500D01*
X14291000Y34059500D02*
X13361000Y34989500D01*
X13361000Y34989500D02*
X10921000Y34989500D01*
X13291000Y26669500D02*
X13341000Y26619500D01*
X15521000Y26469500D02*
X13491000Y26469500D01*
X13491000Y26469500D02*
X13341000Y26619500D01*
X17701000Y26619500D02*
X15671000Y26619500D01*
X15671000Y26619500D02*
X15521000Y26469500D01*
X19931000Y26519500D02*
X17801000Y26519500D01*
X17801000Y26519500D02*
X17701000Y26619500D01*
X22001000Y26579500D02*
X19991000Y26579500D01*
X19991000Y26579500D02*
X19931000Y26519500D01*
X24231000Y26619500D02*
X22041000Y26619500D01*
X22041000Y26619500D02*
X22001000Y26579500D01*
X26411000Y26469500D02*
X24381000Y26469500D01*
X24381000Y26469500D02*
X24231000Y26619500D01*
X28431000Y26569500D02*
X26511000Y26569500D01*
X26511000Y26569500D02*
X26411000Y26469500D01*
X30661000Y26469500D02*
X28531000Y26469500D01*
X28531000Y26469500D02*
X28431000Y26569500D01*
X32841000Y26509500D02*
X30701000Y26509500D01*
X30701000Y26509500D02*
X30661000Y26469500D01*
X35131000Y26579500D02*
X32911000Y26579500D01*
X32911000Y26579500D02*
X32841000Y26509500D01*
X37201000Y26619500D02*
X35171000Y26619500D01*
X35171000Y26619500D02*
X35131000Y26579500D01*
X44171000Y37959500D02*
X45141000Y37959500D01*
X45141000Y37959500D02*
X48101000Y40919500D01*
X48101000Y40919500D02*
X48101000Y43764500D01*
X33481000Y40319500D02*
X41811000Y40319500D01*
X41811000Y40319500D02*
X44171000Y37959500D01*
X15021000Y13609500D02*
X15021000Y14429500D01*
X15021000Y14429500D02*
X17621000Y17029500D01*
X17621000Y17029500D02*
X17621000Y18364500D01*
X15521000Y23969500D02*
X15521000Y22939500D01*
X17621000Y20839500D02*
X17621000Y18364500D01*
X15521000Y22939500D02*
X17621000Y20839500D01*
X13341000Y23919500D02*
X15471000Y23919500D01*
X15471000Y23919500D02*
X15521000Y23969500D01*
X18371000Y13719500D02*
X18371000Y14819500D01*
X20161000Y16609500D02*
X20161000Y18364500D01*
X18371000Y14819500D02*
X20161000Y16609500D01*
X20161000Y18364500D02*
X20161000Y21309500D01*
X19931000Y21539500D02*
X19931000Y24019500D01*
X20161000Y21309500D02*
X19931000Y21539500D01*
X17701000Y23919500D02*
X19831000Y23919500D01*
X19831000Y23919500D02*
X19931000Y24019500D01*
X21081000Y13729500D02*
X21081000Y14849500D01*
X22701000Y16469500D02*
X22701000Y18364500D01*
X21081000Y14849500D02*
X22701000Y16469500D01*
X22701000Y18364500D02*
X22701000Y22019500D01*
X22001000Y22819500D02*
X22751000Y22069500D01*
X22001000Y22819500D02*
X22001000Y24079500D01*
X22701000Y22019500D02*
X22751000Y22069500D01*
X22001000Y24079500D02*
X24071000Y24079500D01*
X24071000Y24079500D02*
X24231000Y23919500D01*
X24511000Y13729500D02*
X24511000Y15819500D01*
X25241000Y16549500D02*
X25241000Y18364500D01*
X24511000Y15819500D02*
X25241000Y16549500D01*
X25241000Y18364500D02*
X25241000Y20629500D01*
X26411000Y21799500D02*
X26411000Y23969500D01*
X25241000Y20629500D02*
X26411000Y21799500D01*
X26411000Y23969500D02*
X26411000Y22919500D01*
X26411000Y23969500D02*
X28331000Y23969500D01*
X28331000Y23969500D02*
X28431000Y23869500D01*
X27691000Y13609500D02*
X27691000Y18274500D01*
X27691000Y18274500D02*
X27781000Y18364500D01*
X27781000Y18364500D02*
X27781000Y19920824D01*
X30661000Y22800824D02*
X30661000Y23969500D01*
X27781000Y19920824D02*
X30661000Y22800824D01*
X30661000Y23969500D02*
X30661000Y23089500D01*
X27781000Y19369500D02*
X27781000Y18364500D01*
X30661000Y23969500D02*
X32681000Y23969500D01*
X32681000Y23969500D02*
X32841000Y23809500D01*
X41783000Y27261500D02*
X41783000Y23471502D01*
X50641000Y20329500D02*
X50641000Y18364500D01*
X50641000Y21685500D02*
X50641000Y20329500D01*
X49403000Y22923500D02*
X50641000Y21685500D01*
X42331002Y22923500D02*
X49403000Y22923500D01*
X41783000Y23471502D02*
X42331002Y22923500D01*
X37149000Y29211500D02*
X38289000Y29211500D01*
X40239000Y27261500D02*
X41783000Y27261500D01*
X38289000Y29211500D02*
X40239000Y27261500D01*
D32*
X36231000Y34159500D02*
X36231000Y30129500D01*
X33621000Y34484500D02*
X35906000Y34484500D01*
X36231000Y34159500D02*
X35906000Y34484500D01*
X36231000Y30129500D02*
X37149000Y29211500D01*
X37149000Y29211500D02*
X37151000Y29209500D01*
D31*
X39751000Y13139500D02*
X43901000Y13139500D01*
X43901000Y13139500D02*
X46311000Y15549500D01*
X46311000Y15549500D02*
X50831000Y15549500D01*
X50831000Y15549500D02*
X50641000Y15739500D01*
X50641000Y15739500D02*
X50641000Y18364500D01*
X42281000Y10299500D02*
X42281000Y10609500D01*
X42281000Y10609500D02*
X39751000Y13139500D01*
X60071000Y13139500D02*
X60071000Y12889500D01*
X60071000Y12889500D02*
X64771000Y8189500D01*
X56131000Y12019500D02*
X58951000Y12019500D01*
X58951000Y12019500D02*
X60071000Y13139500D01*
X50921000Y12149500D02*
X56001000Y12149500D01*
X56001000Y12149500D02*
X56131000Y12019500D01*
X45971000Y10299500D02*
X49071000Y10299500D01*
X49071000Y10299500D02*
X50921000Y12149500D01*
X55981000Y38239500D02*
X52651000Y38239500D01*
X52651000Y38239500D02*
X52371000Y37959500D01*
X42511000Y33549500D02*
X54311000Y33549500D01*
X56911000Y41849500D02*
X58621000Y41849500D01*
X55981000Y40919500D02*
X56911000Y41849500D01*
X55981000Y35219500D02*
X55981000Y38239500D01*
X55981000Y38239500D02*
X55981000Y40919500D01*
X54311000Y33549500D02*
X55981000Y35219500D01*
D32*
X39021000Y34484500D02*
X40736000Y34484500D01*
D31*
X41671000Y33549500D02*
X42511000Y33549500D01*
X42511000Y33549500D02*
X42791000Y33549500D01*
D32*
X40736000Y34484500D02*
X41671000Y33549500D01*
D31*
X54911000Y31529500D02*
X54911000Y27619500D01*
X54911000Y27619500D02*
X55111000Y27419500D01*
X42631000Y31529500D02*
X52911000Y31529500D01*
X52911000Y31529500D02*
X54911000Y31529500D01*
X58491000Y35109500D02*
X58491000Y37269500D01*
X54911000Y31529500D02*
X58491000Y35109500D01*
D32*
X39021000Y33214500D02*
X40046000Y33214500D01*
D31*
X41731000Y31529500D02*
X42631000Y31529500D01*
X42631000Y31529500D02*
X42681000Y31529500D01*
D32*
X40046000Y33214500D02*
X41731000Y31529500D01*
D31*
X35561000Y12759500D02*
X35561000Y13229500D01*
X35561000Y13229500D02*
X32861000Y15929500D01*
X32861000Y15929500D02*
X32861000Y18364500D01*
X19561000Y50479500D02*
X19741000Y50479500D01*
X19741000Y50479500D02*
X22801000Y53539500D01*
X50641000Y46939500D02*
X50641000Y43764500D01*
X44041000Y53539500D02*
X50641000Y46939500D01*
X22801000Y53539500D02*
X44041000Y53539500D01*
X19561000Y50479500D02*
X19561000Y49769500D01*
X19561000Y49769500D02*
X20751000Y48579500D01*
X6021000Y40139500D02*
X6021000Y44049500D01*
X11941000Y49969500D02*
X19051000Y49969500D01*
X6021000Y44049500D02*
X11941000Y49969500D01*
X19051000Y49969500D02*
X19561000Y50479500D01*
X5901000Y37569500D02*
X5901000Y40019500D01*
X5901000Y40019500D02*
X6021000Y40139500D01*
X10921000Y32449500D02*
X7061000Y32449500D01*
X5901000Y33609500D02*
X5901000Y37569500D01*
X7061000Y32449500D02*
X5901000Y33609500D01*
X23451000Y48579500D02*
X23451000Y49289500D01*
X23451000Y49289500D02*
X24641000Y50479500D01*
X25241000Y43764500D02*
X25241000Y46789500D01*
X25241000Y46789500D02*
X23451000Y48579500D01*
X18371000Y11019500D02*
X18371000Y10459500D01*
X18371000Y10459500D02*
X16031000Y8119500D01*
X16031000Y8119500D02*
X12221000Y8119500D01*
X12221000Y8119500D02*
X10791000Y6689500D01*
X10791000Y6689500D02*
X10791000Y4639500D01*
X19071000Y8089500D02*
X19071000Y7839500D01*
X19071000Y7839500D02*
X15871000Y4639500D01*
X21081000Y11029500D02*
X21081000Y10099500D01*
X21081000Y10099500D02*
X19071000Y8089500D01*
X19071000Y8089500D02*
X18931000Y7949500D01*
X15021000Y10909500D02*
X11981000Y10909500D01*
X11671000Y10599500D02*
X5711000Y4639500D01*
X11671000Y10849500D02*
X11671000Y10599500D01*
X11921000Y10849500D02*
X11671000Y10849500D01*
X11981000Y10909500D02*
X11921000Y10849500D01*
X24511000Y11029500D02*
X24511000Y9729500D01*
X20951000Y6949500D02*
X20951000Y4639500D01*
X21511000Y7509500D02*
X20951000Y6949500D01*
X22291000Y7509500D02*
X21511000Y7509500D01*
X24511000Y9729500D02*
X22291000Y7509500D01*
X27691000Y10909500D02*
X27691000Y9669500D01*
X26031000Y8009500D02*
X26031000Y4639500D01*
X27691000Y9669500D02*
X26031000Y8009500D01*
X30731000Y10909500D02*
X30731000Y5019500D01*
X30731000Y5019500D02*
X31111000Y4639500D01*
X64771000Y15809500D02*
X64771000Y19999500D01*
X64771000Y19999500D02*
X64391000Y20379500D01*
X61391000Y37269500D02*
X64901000Y37269500D01*
X64901000Y42349500D02*
X62021000Y42349500D01*
X62021000Y42349500D02*
X61521000Y41849500D01*
X35561000Y10219500D02*
X33611000Y10219500D01*
X32721000Y13609500D02*
X30731000Y13609500D01*
X33011000Y13319500D02*
X32721000Y13609500D01*
X33011000Y10819500D02*
X33011000Y13319500D01*
X33611000Y10219500D02*
X33011000Y10819500D01*
X30321000Y18364500D02*
X30321000Y14019500D01*
X30321000Y14019500D02*
X30731000Y13609500D01*
X30321000Y18364500D02*
X30321000Y20339500D01*
X35131000Y22369500D02*
X35131000Y24079500D01*
X34071000Y21309500D02*
X35131000Y22369500D01*
X31291000Y21309500D02*
X34071000Y21309500D01*
X30321000Y20339500D02*
X31291000Y21309500D01*
X35131000Y24079500D02*
X37041000Y24079500D01*
X37041000Y24079500D02*
X37201000Y23919500D01*
X30781000Y40319500D02*
X30781000Y38189500D01*
D32*
X30781000Y38189500D02*
X30771000Y38179500D01*
D31*
X30321000Y43764500D02*
X30321000Y40779500D01*
D32*
X30321000Y40779500D02*
X30781000Y40319500D01*
X33471000Y38179500D02*
X33471000Y35904500D01*
X33471000Y35904500D02*
X33621000Y35754500D01*
D31*
X10921000Y40069500D02*
X14581000Y40069500D01*
X15081000Y40569500D02*
X15081000Y43764500D01*
X14581000Y40069500D02*
X15081000Y40569500D01*
X8721000Y40139500D02*
X10851000Y40139500D01*
X10851000Y40139500D02*
X10921000Y40069500D01*
X10921000Y37529500D02*
X16881000Y37529500D01*
X17621000Y38269500D02*
X17621000Y43764500D01*
X16881000Y37529500D02*
X17621000Y38269500D01*
X8601000Y37569500D02*
X10881000Y37569500D01*
X10881000Y37569500D02*
X10921000Y37529500D01*
D32*
X33621000Y31944500D02*
X28856000Y31944500D01*
D31*
X27931000Y32869500D02*
X27931000Y43614500D01*
X28856000Y31944500D02*
X27931000Y32869500D01*
D32*
X27931000Y43614500D02*
X27781000Y43764500D01*
D31*
G36*
X38049418Y10597707D02*
X39151645Y10140022D01*
X39501614Y10139717D01*
X39501614Y9299500D01*
X39606207Y8743633D01*
X39934724Y8233104D01*
X40435983Y7890608D01*
X41031000Y7770114D01*
X43531000Y7770114D01*
X44086867Y7874707D01*
X44118996Y7895382D01*
X44125983Y7890608D01*
X44721000Y7770114D01*
X47221000Y7770114D01*
X47776867Y7874707D01*
X48287396Y8203224D01*
X48353179Y8299500D01*
X49070995Y8299500D01*
X49071000Y8299499D01*
X49836367Y8451741D01*
X50387677Y8820114D01*
X52521000Y8820114D01*
X53076867Y8924707D01*
X53433869Y9154432D01*
X53434724Y9153104D01*
X53935983Y8810608D01*
X54531000Y8690114D01*
X57731000Y8690114D01*
X58286867Y8794707D01*
X58797396Y9123224D01*
X59139892Y9624483D01*
X59231170Y10075229D01*
X59556534Y10139948D01*
X59992505Y10139568D01*
X62271222Y7860851D01*
X62271077Y7694502D01*
X62650800Y6775502D01*
X62851178Y6574774D01*
X62408462Y6132830D01*
X61869614Y4835140D01*
X61868388Y3430024D01*
X62404970Y2131396D01*
X63175520Y1359500D01*
X32089276Y1359500D01*
X33037258Y1751198D01*
X33995935Y2708204D01*
X34515408Y3959232D01*
X34516590Y5313825D01*
X33999302Y6565758D01*
X33042296Y7524435D01*
X32731000Y7653697D01*
X32731000Y8448336D01*
X32845633Y8371741D01*
X33611000Y8219499D01*
X33611005Y8219500D01*
X34312288Y8219500D01*
X34656489Y7989512D01*
X35561000Y7809594D01*
X36465511Y7989512D01*
X37232318Y8501876D01*
X37744682Y9268683D01*
X37924600Y10173194D01*
X37924600Y10265806D01*
X37811092Y10836449D01*
X38049418Y10597707D01*
X38049418Y10597707D01*
G37*
X38049418Y10597707D02*
X39151645Y10140022D01*
X39501614Y10139717D01*
X39501614Y9299500D01*
X39606207Y8743633D01*
X39934724Y8233104D01*
X40435983Y7890608D01*
X41031000Y7770114D01*
X43531000Y7770114D01*
X44086867Y7874707D01*
X44118996Y7895382D01*
X44125983Y7890608D01*
X44721000Y7770114D01*
X47221000Y7770114D01*
X47776867Y7874707D01*
X48287396Y8203224D01*
X48353179Y8299500D01*
X49070995Y8299500D01*
X49071000Y8299499D01*
X49836367Y8451741D01*
X50387677Y8820114D01*
X52521000Y8820114D01*
X53076867Y8924707D01*
X53433869Y9154432D01*
X53434724Y9153104D01*
X53935983Y8810608D01*
X54531000Y8690114D01*
X57731000Y8690114D01*
X58286867Y8794707D01*
X58797396Y9123224D01*
X59139892Y9624483D01*
X59231170Y10075229D01*
X59556534Y10139948D01*
X59992505Y10139568D01*
X62271222Y7860851D01*
X62271077Y7694502D01*
X62650800Y6775502D01*
X62851178Y6574774D01*
X62408462Y6132830D01*
X61869614Y4835140D01*
X61868388Y3430024D01*
X62404970Y2131396D01*
X63175520Y1359500D01*
X32089276Y1359500D01*
X33037258Y1751198D01*
X33995935Y2708204D01*
X34515408Y3959232D01*
X34516590Y5313825D01*
X33999302Y6565758D01*
X33042296Y7524435D01*
X32731000Y7653697D01*
X32731000Y8448336D01*
X32845633Y8371741D01*
X33611000Y8219499D01*
X33611005Y8219500D01*
X34312288Y8219500D01*
X34656489Y7989512D01*
X35561000Y7809594D01*
X36465511Y7989512D01*
X37232318Y8501876D01*
X37744682Y9268683D01*
X37924600Y10173194D01*
X37924600Y10265806D01*
X37811092Y10836449D01*
X38049418Y10597707D01*
G36*
X61778462Y52742830D02*
X61239614Y51445140D01*
X61238388Y50040024D01*
X61774970Y48741396D01*
X62767670Y47746962D01*
X64065360Y47208114D01*
X65470476Y47206888D01*
X66769104Y47743470D01*
X67763538Y48736170D01*
X68302386Y50033860D01*
X68303612Y51438976D01*
X67767030Y52737604D01*
X67256027Y53249500D01*
X69441000Y53249500D01*
X69441000Y1359500D01*
X67625529Y1359500D01*
X68393538Y2126170D01*
X68932386Y3423860D01*
X68933612Y4828976D01*
X68397030Y6127604D01*
X67404330Y7122038D01*
X67088598Y7253141D01*
X67270055Y7690139D01*
X67270923Y8684498D01*
X66891200Y9603498D01*
X66188696Y10307229D01*
X65270361Y10688555D01*
X65100224Y10688704D01*
X63070633Y12718294D01*
X63071519Y13733619D01*
X62902016Y14143847D01*
X63353304Y13691771D01*
X64271639Y13310445D01*
X65265998Y13309577D01*
X66184998Y13689300D01*
X66888729Y14391804D01*
X67270055Y15310139D01*
X67270923Y16304498D01*
X66891200Y17223498D01*
X66771000Y17343908D01*
X66771000Y18077041D01*
X67069892Y18514483D01*
X67190386Y19109500D01*
X67190386Y21649500D01*
X67085793Y22205367D01*
X66757276Y22715896D01*
X66256017Y23058392D01*
X65661000Y23178886D01*
X63121000Y23178886D01*
X62565133Y23074293D01*
X62054604Y22745776D01*
X61712108Y22244517D01*
X61591614Y21649500D01*
X61591614Y19109500D01*
X61696207Y18553633D01*
X62024724Y18043104D01*
X62525983Y17700608D01*
X62771000Y17650991D01*
X62771000Y17344720D01*
X62653271Y17227196D01*
X62271945Y16308861D01*
X62271077Y15314502D01*
X62364542Y15088299D01*
X61772582Y15681293D01*
X60670355Y16138978D01*
X59476881Y16140019D01*
X58373857Y15684259D01*
X57986141Y15297219D01*
X57731000Y15348886D01*
X54531000Y15348886D01*
X53975133Y15244293D01*
X53618131Y15014568D01*
X53617276Y15015896D01*
X53116017Y15358392D01*
X52805495Y15421274D01*
X52831001Y15549500D01*
X52686240Y16277259D01*
X52678759Y16314867D01*
X52641000Y16371377D01*
X52641000Y16462058D01*
X52858311Y16787287D01*
X53041000Y17705727D01*
X53041000Y19023273D01*
X52858311Y19941713D01*
X52641000Y20266942D01*
X52641000Y21685500D01*
X52488759Y22450867D01*
X52055214Y23099714D01*
X52055211Y23099716D01*
X50817214Y24337714D01*
X50168367Y24771259D01*
X49403000Y24923501D01*
X49402995Y24923500D01*
X43783000Y24923500D01*
X43783000Y25866880D01*
X43816892Y25916483D01*
X43937386Y26511500D01*
X43937386Y28011500D01*
X43832793Y28567367D01*
X43504276Y29077896D01*
X43003017Y29420392D01*
X42464226Y29529500D01*
X51884892Y29529500D01*
X51781614Y29019500D01*
X51781614Y25819500D01*
X51886207Y25263633D01*
X52214724Y24753104D01*
X52715983Y24410608D01*
X53311000Y24290114D01*
X56911000Y24290114D01*
X57466867Y24394707D01*
X57977396Y24723224D01*
X58319892Y25224483D01*
X58440386Y25819500D01*
X58440386Y29019500D01*
X58335793Y29575367D01*
X58007276Y30085896D01*
X57506017Y30428392D01*
X56911000Y30548886D01*
X56911000Y30701072D01*
X59905211Y33695284D01*
X59905214Y33695286D01*
X60338759Y34344133D01*
X60388601Y34594707D01*
X60389992Y34601696D01*
X60941000Y34490114D01*
X61841000Y34490114D01*
X62396867Y34594707D01*
X62722919Y34804516D01*
X63035983Y34590608D01*
X63631000Y34470114D01*
X66171000Y34470114D01*
X66726867Y34574707D01*
X67237396Y34903224D01*
X67579892Y35404483D01*
X67700386Y35999500D01*
X67700386Y38539500D01*
X67595793Y39095367D01*
X67267276Y39605896D01*
X66766017Y39948392D01*
X66475439Y40007236D01*
X67247923Y40778372D01*
X67670519Y41796096D01*
X67671480Y42898070D01*
X67250661Y43916529D01*
X66472128Y44696423D01*
X65454404Y45119019D01*
X64352430Y45119980D01*
X63333971Y44699161D01*
X62983699Y44349500D01*
X62798563Y44349500D01*
X62566017Y44508392D01*
X61971000Y44628886D01*
X61071000Y44628886D01*
X60515133Y44524293D01*
X60065858Y44235192D01*
X59666017Y44508392D01*
X59071000Y44628886D01*
X58171000Y44628886D01*
X57615133Y44524293D01*
X57104604Y44195776D01*
X56861241Y43839603D01*
X56272616Y43722518D01*
X56145633Y43697259D01*
X55496786Y43263714D01*
X55496784Y43263711D01*
X54566786Y42333714D01*
X54133241Y41684867D01*
X54014692Y41088886D01*
X51859464Y41088886D01*
X52338056Y41408671D01*
X52858311Y42187287D01*
X53041000Y43105727D01*
X53041000Y44423273D01*
X52858311Y45341713D01*
X52641000Y45666942D01*
X52641000Y46939495D01*
X52641001Y46939500D01*
X52488759Y47704866D01*
X52488759Y47704867D01*
X52055214Y48353714D01*
X52055211Y48353716D01*
X47159428Y53249500D01*
X62286017Y53249500D01*
X61778462Y52742830D01*
X61778462Y52742830D01*
G37*
X61778462Y52742830D02*
X61239614Y51445140D01*
X61238388Y50040024D01*
X61774970Y48741396D01*
X62767670Y47746962D01*
X64065360Y47208114D01*
X65470476Y47206888D01*
X66769104Y47743470D01*
X67763538Y48736170D01*
X68302386Y50033860D01*
X68303612Y51438976D01*
X67767030Y52737604D01*
X67256027Y53249500D01*
X69441000Y53249500D01*
X69441000Y1359500D01*
X67625529Y1359500D01*
X68393538Y2126170D01*
X68932386Y3423860D01*
X68933612Y4828976D01*
X68397030Y6127604D01*
X67404330Y7122038D01*
X67088598Y7253141D01*
X67270055Y7690139D01*
X67270923Y8684498D01*
X66891200Y9603498D01*
X66188696Y10307229D01*
X65270361Y10688555D01*
X65100224Y10688704D01*
X63070633Y12718294D01*
X63071519Y13733619D01*
X62902016Y14143847D01*
X63353304Y13691771D01*
X64271639Y13310445D01*
X65265998Y13309577D01*
X66184998Y13689300D01*
X66888729Y14391804D01*
X67270055Y15310139D01*
X67270923Y16304498D01*
X66891200Y17223498D01*
X66771000Y17343908D01*
X66771000Y18077041D01*
X67069892Y18514483D01*
X67190386Y19109500D01*
X67190386Y21649500D01*
X67085793Y22205367D01*
X66757276Y22715896D01*
X66256017Y23058392D01*
X65661000Y23178886D01*
X63121000Y23178886D01*
X62565133Y23074293D01*
X62054604Y22745776D01*
X61712108Y22244517D01*
X61591614Y21649500D01*
X61591614Y19109500D01*
X61696207Y18553633D01*
X62024724Y18043104D01*
X62525983Y17700608D01*
X62771000Y17650991D01*
X62771000Y17344720D01*
X62653271Y17227196D01*
X62271945Y16308861D01*
X62271077Y15314502D01*
X62364542Y15088299D01*
X61772582Y15681293D01*
X60670355Y16138978D01*
X59476881Y16140019D01*
X58373857Y15684259D01*
X57986141Y15297219D01*
X57731000Y15348886D01*
X54531000Y15348886D01*
X53975133Y15244293D01*
X53618131Y15014568D01*
X53617276Y15015896D01*
X53116017Y15358392D01*
X52805495Y15421274D01*
X52831001Y15549500D01*
X52686240Y16277259D01*
X52678759Y16314867D01*
X52641000Y16371377D01*
X52641000Y16462058D01*
X52858311Y16787287D01*
X53041000Y17705727D01*
X53041000Y19023273D01*
X52858311Y19941713D01*
X52641000Y20266942D01*
X52641000Y21685500D01*
X52488759Y22450867D01*
X52055214Y23099714D01*
X52055211Y23099716D01*
X50817214Y24337714D01*
X50168367Y24771259D01*
X49403000Y24923501D01*
X49402995Y24923500D01*
X43783000Y24923500D01*
X43783000Y25866880D01*
X43816892Y25916483D01*
X43937386Y26511500D01*
X43937386Y28011500D01*
X43832793Y28567367D01*
X43504276Y29077896D01*
X43003017Y29420392D01*
X42464226Y29529500D01*
X51884892Y29529500D01*
X51781614Y29019500D01*
X51781614Y25819500D01*
X51886207Y25263633D01*
X52214724Y24753104D01*
X52715983Y24410608D01*
X53311000Y24290114D01*
X56911000Y24290114D01*
X57466867Y24394707D01*
X57977396Y24723224D01*
X58319892Y25224483D01*
X58440386Y25819500D01*
X58440386Y29019500D01*
X58335793Y29575367D01*
X58007276Y30085896D01*
X57506017Y30428392D01*
X56911000Y30548886D01*
X56911000Y30701072D01*
X59905211Y33695284D01*
X59905214Y33695286D01*
X60338759Y34344133D01*
X60388601Y34594707D01*
X60389992Y34601696D01*
X60941000Y34490114D01*
X61841000Y34490114D01*
X62396867Y34594707D01*
X62722919Y34804516D01*
X63035983Y34590608D01*
X63631000Y34470114D01*
X66171000Y34470114D01*
X66726867Y34574707D01*
X67237396Y34903224D01*
X67579892Y35404483D01*
X67700386Y35999500D01*
X67700386Y38539500D01*
X67595793Y39095367D01*
X67267276Y39605896D01*
X66766017Y39948392D01*
X66475439Y40007236D01*
X67247923Y40778372D01*
X67670519Y41796096D01*
X67671480Y42898070D01*
X67250661Y43916529D01*
X66472128Y44696423D01*
X65454404Y45119019D01*
X64352430Y45119980D01*
X63333971Y44699161D01*
X62983699Y44349500D01*
X62798563Y44349500D01*
X62566017Y44508392D01*
X61971000Y44628886D01*
X61071000Y44628886D01*
X60515133Y44524293D01*
X60065858Y44235192D01*
X59666017Y44508392D01*
X59071000Y44628886D01*
X58171000Y44628886D01*
X57615133Y44524293D01*
X57104604Y44195776D01*
X56861241Y43839603D01*
X56272616Y43722518D01*
X56145633Y43697259D01*
X55496786Y43263714D01*
X55496784Y43263711D01*
X54566786Y42333714D01*
X54133241Y41684867D01*
X54014692Y41088886D01*
X51859464Y41088886D01*
X52338056Y41408671D01*
X52858311Y42187287D01*
X53041000Y43105727D01*
X53041000Y44423273D01*
X52858311Y45341713D01*
X52641000Y45666942D01*
X52641000Y46939495D01*
X52641001Y46939500D01*
X52488759Y47704866D01*
X52488759Y47704867D01*
X52055214Y48353714D01*
X52055211Y48353716D01*
X47159428Y53249500D01*
X62286017Y53249500D01*
X61778462Y52742830D01*
G36*
X5372896Y53095530D02*
X4378462Y52102830D01*
X3839614Y50805140D01*
X3838388Y49400024D01*
X4374970Y48101396D01*
X5367670Y47106962D01*
X5991145Y46848073D01*
X4606786Y45463714D01*
X4173241Y44814867D01*
X4020999Y44049500D01*
X4021000Y44049495D01*
X4021000Y41617063D01*
X3862108Y41384517D01*
X3741614Y40789500D01*
X3741614Y39489500D01*
X3841303Y38959694D01*
X3742108Y38814517D01*
X3621614Y38219500D01*
X3621614Y36919500D01*
X3726207Y36363633D01*
X3901000Y36091997D01*
X3901000Y33609505D01*
X3900999Y33609500D01*
X4053241Y32844133D01*
X4486786Y32195286D01*
X5646784Y31035289D01*
X5646786Y31035286D01*
X6052596Y30764133D01*
X6295633Y30601741D01*
X7061000Y30449499D01*
X7061005Y30449500D01*
X9969288Y30449500D01*
X10472022Y30349500D01*
X11369978Y30349500D01*
X12173613Y30509353D01*
X12854902Y30964576D01*
X13310125Y31645865D01*
X13469978Y32449500D01*
X13310125Y33253135D01*
X12854902Y33934424D01*
X12173613Y34389647D01*
X11369978Y34549500D01*
X10472022Y34549500D01*
X9969288Y34449500D01*
X7901000Y34449500D01*
X7901000Y35390114D01*
X9351000Y35390114D01*
X9906867Y35494707D01*
X9962909Y35530769D01*
X10472022Y35429500D01*
X11369978Y35429500D01*
X11872712Y35529500D01*
X16880995Y35529500D01*
X16881000Y35529499D01*
X17646367Y35681741D01*
X18295214Y36115286D01*
X19035214Y36855286D01*
X19468759Y37504133D01*
X19621001Y38269500D01*
X19621000Y38269505D01*
X19621000Y40813140D01*
X20161000Y40705727D01*
X21079440Y40888416D01*
X21431000Y41123321D01*
X21782560Y40888416D01*
X22701000Y40705727D01*
X23619440Y40888416D01*
X23971000Y41123321D01*
X24322560Y40888416D01*
X25241000Y40705727D01*
X25931000Y40842976D01*
X25931000Y32869505D01*
X25930999Y32869500D01*
X26083241Y32104133D01*
X26516786Y31455286D01*
X27441787Y30530286D01*
X28090634Y30096741D01*
X28856000Y29944499D01*
X29610101Y30094500D01*
X33621000Y30094500D01*
X33724633Y30115114D01*
X34383861Y30115114D01*
X34521823Y29421535D01*
X34922852Y28821352D01*
X35307624Y28436580D01*
X35734786Y27797286D01*
X36383633Y27363741D01*
X37149000Y27211500D01*
X37460572Y27211500D01*
X38824784Y25847289D01*
X38824786Y25847286D01*
X39237169Y25571741D01*
X39473633Y25413741D01*
X39783000Y25352204D01*
X39783000Y23471507D01*
X39782999Y23471502D01*
X39935241Y22706135D01*
X40368786Y22057288D01*
X40916786Y21509289D01*
X40916788Y21509286D01*
X41284803Y21263387D01*
X40481000Y21423273D01*
X39562560Y21240584D01*
X39211000Y21005679D01*
X38859440Y21240584D01*
X37941000Y21423273D01*
X37022560Y21240584D01*
X36671000Y21005679D01*
X36607317Y21048230D01*
X36978759Y21604133D01*
X36985916Y21640114D01*
X37851000Y21640114D01*
X38406867Y21744707D01*
X38917396Y22073224D01*
X39259892Y22574483D01*
X39380386Y23169500D01*
X39380386Y24669500D01*
X39275793Y25225367D01*
X38947276Y25735896D01*
X38446017Y26078392D01*
X37851000Y26198886D01*
X36551000Y26198886D01*
X36439532Y26177912D01*
X36351017Y26238392D01*
X35756000Y26358886D01*
X34506000Y26358886D01*
X33950133Y26254293D01*
X33644711Y26057759D01*
X33491000Y26088886D01*
X32191000Y26088886D01*
X31993284Y26051683D01*
X31881017Y26128392D01*
X31286000Y26248886D01*
X30036000Y26248886D01*
X29480133Y26144293D01*
X29390021Y26086308D01*
X29081000Y26148886D01*
X27781000Y26148886D01*
X27639884Y26122333D01*
X27631017Y26128392D01*
X27036000Y26248886D01*
X25786000Y26248886D01*
X25230133Y26144293D01*
X25211092Y26132041D01*
X24881000Y26198886D01*
X23581000Y26198886D01*
X23344080Y26154307D01*
X23221017Y26238392D01*
X22626000Y26358886D01*
X21376000Y26358886D01*
X20820133Y26254293D01*
X20809618Y26247527D01*
X20556000Y26298886D01*
X19306000Y26298886D01*
X18750133Y26194293D01*
X18660021Y26136308D01*
X18351000Y26198886D01*
X17051000Y26198886D01*
X16709873Y26134699D01*
X16146000Y26248886D01*
X14896000Y26248886D01*
X14340133Y26144293D01*
X14321092Y26132041D01*
X13991000Y26198886D01*
X12691000Y26198886D01*
X12135133Y26094293D01*
X11624604Y25765776D01*
X11282108Y25264517D01*
X11161614Y24669500D01*
X11161614Y23169500D01*
X11266207Y22613633D01*
X11594724Y22103104D01*
X12095983Y21760608D01*
X12691000Y21640114D01*
X13991000Y21640114D01*
X14025698Y21646643D01*
X14106786Y21525286D01*
X14353507Y21278566D01*
X14162560Y21240584D01*
X13383944Y20720329D01*
X12863689Y19941713D01*
X12681000Y19023273D01*
X12681000Y17705727D01*
X12863689Y16787287D01*
X13383944Y16008671D01*
X13616412Y15853340D01*
X13606786Y15843714D01*
X13379986Y15504283D01*
X13304604Y15455776D01*
X12962108Y14954517D01*
X12841614Y14359500D01*
X12841614Y12909500D01*
X11981005Y12909500D01*
X11981000Y12909501D01*
X11679357Y12849500D01*
X11671000Y12849500D01*
X10905633Y12697259D01*
X10772643Y12608398D01*
X10773612Y13718976D01*
X10237030Y15017604D01*
X9244330Y16012038D01*
X7946640Y16550886D01*
X6541524Y16552112D01*
X5242896Y16015530D01*
X4248462Y15022830D01*
X3709614Y13725140D01*
X3708388Y12320024D01*
X4244970Y11021396D01*
X5237670Y10026962D01*
X6535360Y9488114D01*
X7730144Y9487072D01*
X6316958Y8073886D01*
X3806000Y8073886D01*
X3250133Y7969293D01*
X2739604Y7640776D01*
X2397108Y7139517D01*
X2276614Y6544500D01*
X2276614Y2734500D01*
X2381207Y2178633D01*
X2709724Y1668104D01*
X3161380Y1359500D01*
X1421000Y1359500D01*
X1421000Y53249500D01*
X5745532Y53249500D01*
X5372896Y53095530D01*
X5372896Y53095530D01*
G37*
X5372896Y53095530D02*
X4378462Y52102830D01*
X3839614Y50805140D01*
X3838388Y49400024D01*
X4374970Y48101396D01*
X5367670Y47106962D01*
X5991145Y46848073D01*
X4606786Y45463714D01*
X4173241Y44814867D01*
X4020999Y44049500D01*
X4021000Y44049495D01*
X4021000Y41617063D01*
X3862108Y41384517D01*
X3741614Y40789500D01*
X3741614Y39489500D01*
X3841303Y38959694D01*
X3742108Y38814517D01*
X3621614Y38219500D01*
X3621614Y36919500D01*
X3726207Y36363633D01*
X3901000Y36091997D01*
X3901000Y33609505D01*
X3900999Y33609500D01*
X4053241Y32844133D01*
X4486786Y32195286D01*
X5646784Y31035289D01*
X5646786Y31035286D01*
X6052596Y30764133D01*
X6295633Y30601741D01*
X7061000Y30449499D01*
X7061005Y30449500D01*
X9969288Y30449500D01*
X10472022Y30349500D01*
X11369978Y30349500D01*
X12173613Y30509353D01*
X12854902Y30964576D01*
X13310125Y31645865D01*
X13469978Y32449500D01*
X13310125Y33253135D01*
X12854902Y33934424D01*
X12173613Y34389647D01*
X11369978Y34549500D01*
X10472022Y34549500D01*
X9969288Y34449500D01*
X7901000Y34449500D01*
X7901000Y35390114D01*
X9351000Y35390114D01*
X9906867Y35494707D01*
X9962909Y35530769D01*
X10472022Y35429500D01*
X11369978Y35429500D01*
X11872712Y35529500D01*
X16880995Y35529500D01*
X16881000Y35529499D01*
X17646367Y35681741D01*
X18295214Y36115286D01*
X19035214Y36855286D01*
X19468759Y37504133D01*
X19621001Y38269500D01*
X19621000Y38269505D01*
X19621000Y40813140D01*
X20161000Y40705727D01*
X21079440Y40888416D01*
X21431000Y41123321D01*
X21782560Y40888416D01*
X22701000Y40705727D01*
X23619440Y40888416D01*
X23971000Y41123321D01*
X24322560Y40888416D01*
X25241000Y40705727D01*
X25931000Y40842976D01*
X25931000Y32869505D01*
X25930999Y32869500D01*
X26083241Y32104133D01*
X26516786Y31455286D01*
X27441787Y30530286D01*
X28090634Y30096741D01*
X28856000Y29944499D01*
X29610101Y30094500D01*
X33621000Y30094500D01*
X33724633Y30115114D01*
X34383861Y30115114D01*
X34521823Y29421535D01*
X34922852Y28821352D01*
X35307624Y28436580D01*
X35734786Y27797286D01*
X36383633Y27363741D01*
X37149000Y27211500D01*
X37460572Y27211500D01*
X38824784Y25847289D01*
X38824786Y25847286D01*
X39237169Y25571741D01*
X39473633Y25413741D01*
X39783000Y25352204D01*
X39783000Y23471507D01*
X39782999Y23471502D01*
X39935241Y22706135D01*
X40368786Y22057288D01*
X40916786Y21509289D01*
X40916788Y21509286D01*
X41284803Y21263387D01*
X40481000Y21423273D01*
X39562560Y21240584D01*
X39211000Y21005679D01*
X38859440Y21240584D01*
X37941000Y21423273D01*
X37022560Y21240584D01*
X36671000Y21005679D01*
X36607317Y21048230D01*
X36978759Y21604133D01*
X36985916Y21640114D01*
X37851000Y21640114D01*
X38406867Y21744707D01*
X38917396Y22073224D01*
X39259892Y22574483D01*
X39380386Y23169500D01*
X39380386Y24669500D01*
X39275793Y25225367D01*
X38947276Y25735896D01*
X38446017Y26078392D01*
X37851000Y26198886D01*
X36551000Y26198886D01*
X36439532Y26177912D01*
X36351017Y26238392D01*
X35756000Y26358886D01*
X34506000Y26358886D01*
X33950133Y26254293D01*
X33644711Y26057759D01*
X33491000Y26088886D01*
X32191000Y26088886D01*
X31993284Y26051683D01*
X31881017Y26128392D01*
X31286000Y26248886D01*
X30036000Y26248886D01*
X29480133Y26144293D01*
X29390021Y26086308D01*
X29081000Y26148886D01*
X27781000Y26148886D01*
X27639884Y26122333D01*
X27631017Y26128392D01*
X27036000Y26248886D01*
X25786000Y26248886D01*
X25230133Y26144293D01*
X25211092Y26132041D01*
X24881000Y26198886D01*
X23581000Y26198886D01*
X23344080Y26154307D01*
X23221017Y26238392D01*
X22626000Y26358886D01*
X21376000Y26358886D01*
X20820133Y26254293D01*
X20809618Y26247527D01*
X20556000Y26298886D01*
X19306000Y26298886D01*
X18750133Y26194293D01*
X18660021Y26136308D01*
X18351000Y26198886D01*
X17051000Y26198886D01*
X16709873Y26134699D01*
X16146000Y26248886D01*
X14896000Y26248886D01*
X14340133Y26144293D01*
X14321092Y26132041D01*
X13991000Y26198886D01*
X12691000Y26198886D01*
X12135133Y26094293D01*
X11624604Y25765776D01*
X11282108Y25264517D01*
X11161614Y24669500D01*
X11161614Y23169500D01*
X11266207Y22613633D01*
X11594724Y22103104D01*
X12095983Y21760608D01*
X12691000Y21640114D01*
X13991000Y21640114D01*
X14025698Y21646643D01*
X14106786Y21525286D01*
X14353507Y21278566D01*
X14162560Y21240584D01*
X13383944Y20720329D01*
X12863689Y19941713D01*
X12681000Y19023273D01*
X12681000Y17705727D01*
X12863689Y16787287D01*
X13383944Y16008671D01*
X13616412Y15853340D01*
X13606786Y15843714D01*
X13379986Y15504283D01*
X13304604Y15455776D01*
X12962108Y14954517D01*
X12841614Y14359500D01*
X12841614Y12909500D01*
X11981005Y12909500D01*
X11981000Y12909501D01*
X11679357Y12849500D01*
X11671000Y12849500D01*
X10905633Y12697259D01*
X10772643Y12608398D01*
X10773612Y13718976D01*
X10237030Y15017604D01*
X9244330Y16012038D01*
X7946640Y16550886D01*
X6541524Y16552112D01*
X5242896Y16015530D01*
X4248462Y15022830D01*
X3709614Y13725140D01*
X3708388Y12320024D01*
X4244970Y11021396D01*
X5237670Y10026962D01*
X6535360Y9488114D01*
X7730144Y9487072D01*
X6316958Y8073886D01*
X3806000Y8073886D01*
X3250133Y7969293D01*
X2739604Y7640776D01*
X2397108Y7139517D01*
X2276614Y6544500D01*
X2276614Y2734500D01*
X2381207Y2178633D01*
X2709724Y1668104D01*
X3161380Y1359500D01*
X1421000Y1359500D01*
X1421000Y53249500D01*
X5745532Y53249500D01*
X5372896Y53095530D01*
G36*
X48641000Y20857073D02*
X48641000Y20266942D01*
X48423689Y19941713D01*
X48241000Y19023273D01*
X48241000Y17705727D01*
X48272075Y17549500D01*
X47929925Y17549500D01*
X47961000Y17705727D01*
X47961000Y19023273D01*
X47778311Y19941713D01*
X47258056Y20720329D01*
X46953989Y20923500D01*
X48574572Y20923500D01*
X48641000Y20857073D01*
X48641000Y20857073D01*
G37*
X48641000Y20857073D02*
X48641000Y20266942D01*
X48423689Y19941713D01*
X48241000Y19023273D01*
X48241000Y17705727D01*
X48272075Y17549500D01*
X47929925Y17549500D01*
X47961000Y17705727D01*
X47961000Y19023273D01*
X47778311Y19941713D01*
X47258056Y20720329D01*
X46953989Y20923500D01*
X48574572Y20923500D01*
X48641000Y20857073D01*
G36*
X30021000Y36000114D02*
X31316614Y36000114D01*
X31316614Y35454500D01*
X31381963Y35107201D01*
X31316614Y34784500D01*
X31316614Y34184500D01*
X31389997Y33794500D01*
X29931000Y33794500D01*
X29931000Y36018339D01*
X30021000Y36000114D01*
X30021000Y36000114D01*
G37*
X30021000Y36000114D02*
X31316614Y36000114D01*
X31316614Y35454500D01*
X31381963Y35107201D01*
X31316614Y34784500D01*
X31316614Y34184500D01*
X31389997Y33794500D01*
X29931000Y33794500D01*
X29931000Y36018339D01*
X30021000Y36000114D01*
G36*
X48641000Y46111073D02*
X48641000Y45666942D01*
X48423689Y45341713D01*
X48241000Y44423273D01*
X48241000Y43105727D01*
X48423689Y42187287D01*
X48943944Y41408671D01*
X49722560Y40888416D01*
X49832234Y40866600D01*
X49504604Y40655776D01*
X49162108Y40154517D01*
X49041614Y39559500D01*
X49041614Y36359500D01*
X49146207Y35803633D01*
X49309737Y35549500D01*
X42287296Y35549500D01*
X42044148Y35792648D01*
X41443965Y36193677D01*
X41293569Y36223593D01*
X41220793Y36610367D01*
X40892276Y37120896D01*
X40391017Y37463392D01*
X39796000Y37583886D01*
X38246000Y37583886D01*
X37690133Y37479293D01*
X37179604Y37150776D01*
X36837108Y36649517D01*
X36729205Y36116676D01*
X36613965Y36193677D01*
X35906000Y36334501D01*
X35905995Y36334500D01*
X35872701Y36334500D01*
X35820793Y36610367D01*
X35620796Y36921171D01*
X35629892Y36934483D01*
X35750386Y37529500D01*
X35750386Y38829500D01*
X35645793Y39385367D01*
X35317276Y39895896D01*
X34816017Y40238392D01*
X34221000Y40358886D01*
X33060386Y40358886D01*
X33060386Y40745387D01*
X33779440Y40888416D01*
X34131000Y41123321D01*
X34482560Y40888416D01*
X35401000Y40705727D01*
X36319440Y40888416D01*
X36671000Y41123321D01*
X37022560Y40888416D01*
X37941000Y40705727D01*
X38859440Y40888416D01*
X39211000Y41123321D01*
X39562560Y40888416D01*
X40481000Y40705727D01*
X41399440Y40888416D01*
X41751000Y41123321D01*
X42102560Y40888416D01*
X43021000Y40705727D01*
X43939440Y40888416D01*
X44291000Y41123321D01*
X44642560Y40888416D01*
X45561000Y40705727D01*
X46479440Y40888416D01*
X47258056Y41408671D01*
X47778311Y42187287D01*
X47961000Y43105727D01*
X47961000Y44423273D01*
X47778311Y45341713D01*
X47258056Y46120329D01*
X46479440Y46640584D01*
X45561000Y46823273D01*
X44642560Y46640584D01*
X44291000Y46405679D01*
X43939440Y46640584D01*
X43021000Y46823273D01*
X42102560Y46640584D01*
X41751000Y46405679D01*
X41399440Y46640584D01*
X40481000Y46823273D01*
X39562560Y46640584D01*
X39211000Y46405679D01*
X38859440Y46640584D01*
X37941000Y46823273D01*
X37022560Y46640584D01*
X36671000Y46405679D01*
X36319440Y46640584D01*
X35401000Y46823273D01*
X34482560Y46640584D01*
X34131000Y46405679D01*
X33779440Y46640584D01*
X32861000Y46823273D01*
X31942560Y46640584D01*
X31591000Y46405679D01*
X31239440Y46640584D01*
X30321000Y46823273D01*
X29402560Y46640584D01*
X29051000Y46405679D01*
X28699440Y46640584D01*
X27781000Y46823273D01*
X27241000Y46715860D01*
X27241000Y46789500D01*
X27088759Y47554867D01*
X26655214Y48203714D01*
X26655211Y48203716D01*
X26468786Y48390141D01*
X26987923Y48908372D01*
X27410519Y49926096D01*
X27411480Y51028070D01*
X27200161Y51539500D01*
X43212572Y51539500D01*
X48641000Y46111073D01*
X48641000Y46111073D01*
G37*
X48641000Y46111073D02*
X48641000Y45666942D01*
X48423689Y45341713D01*
X48241000Y44423273D01*
X48241000Y43105727D01*
X48423689Y42187287D01*
X48943944Y41408671D01*
X49722560Y40888416D01*
X49832234Y40866600D01*
X49504604Y40655776D01*
X49162108Y40154517D01*
X49041614Y39559500D01*
X49041614Y36359500D01*
X49146207Y35803633D01*
X49309737Y35549500D01*
X42287296Y35549500D01*
X42044148Y35792648D01*
X41443965Y36193677D01*
X41293569Y36223593D01*
X41220793Y36610367D01*
X40892276Y37120896D01*
X40391017Y37463392D01*
X39796000Y37583886D01*
X38246000Y37583886D01*
X37690133Y37479293D01*
X37179604Y37150776D01*
X36837108Y36649517D01*
X36729205Y36116676D01*
X36613965Y36193677D01*
X35906000Y36334501D01*
X35905995Y36334500D01*
X35872701Y36334500D01*
X35820793Y36610367D01*
X35620796Y36921171D01*
X35629892Y36934483D01*
X35750386Y37529500D01*
X35750386Y38829500D01*
X35645793Y39385367D01*
X35317276Y39895896D01*
X34816017Y40238392D01*
X34221000Y40358886D01*
X33060386Y40358886D01*
X33060386Y40745387D01*
X33779440Y40888416D01*
X34131000Y41123321D01*
X34482560Y40888416D01*
X35401000Y40705727D01*
X36319440Y40888416D01*
X36671000Y41123321D01*
X37022560Y40888416D01*
X37941000Y40705727D01*
X38859440Y40888416D01*
X39211000Y41123321D01*
X39562560Y40888416D01*
X40481000Y40705727D01*
X41399440Y40888416D01*
X41751000Y41123321D01*
X42102560Y40888416D01*
X43021000Y40705727D01*
X43939440Y40888416D01*
X44291000Y41123321D01*
X44642560Y40888416D01*
X45561000Y40705727D01*
X46479440Y40888416D01*
X47258056Y41408671D01*
X47778311Y42187287D01*
X47961000Y43105727D01*
X47961000Y44423273D01*
X47778311Y45341713D01*
X47258056Y46120329D01*
X46479440Y46640584D01*
X45561000Y46823273D01*
X44642560Y46640584D01*
X44291000Y46405679D01*
X43939440Y46640584D01*
X43021000Y46823273D01*
X42102560Y46640584D01*
X41751000Y46405679D01*
X41399440Y46640584D01*
X40481000Y46823273D01*
X39562560Y46640584D01*
X39211000Y46405679D01*
X38859440Y46640584D01*
X37941000Y46823273D01*
X37022560Y46640584D01*
X36671000Y46405679D01*
X36319440Y46640584D01*
X35401000Y46823273D01*
X34482560Y46640584D01*
X34131000Y46405679D01*
X33779440Y46640584D01*
X32861000Y46823273D01*
X31942560Y46640584D01*
X31591000Y46405679D01*
X31239440Y46640584D01*
X30321000Y46823273D01*
X29402560Y46640584D01*
X29051000Y46405679D01*
X28699440Y46640584D01*
X27781000Y46823273D01*
X27241000Y46715860D01*
X27241000Y46789500D01*
X27088759Y47554867D01*
X26655214Y48203714D01*
X26655211Y48203716D01*
X26468786Y48390141D01*
X26987923Y48908372D01*
X27410519Y49926096D01*
X27411480Y51028070D01*
X27200161Y51539500D01*
X43212572Y51539500D01*
X48641000Y46111073D01*
M02*
