G04 #@! TF.FileFunction,Copper,L1,Top,Signal*
%FSLAX46Y46*%
G04 Gerber Fmt 4.6, Leading zero omitted, Abs format (unit mm)*
G04 Created by KiCad (PCBNEW 4.0.6) date Sunday, 03 July 2022 'PMt' 13:36:19*
%MOMM*%
%LPD*%
G01*
G04 APERTURE LIST*
%ADD10C,0.100000*%
%ADD11C,3.000000*%
%ADD12R,2.540000X2.540000*%
%ADD13C,2.540000*%
%ADD14C,1.998980*%
%ADD15O,1.800000X3.000000*%
%ADD16R,1.550000X0.600000*%
%ADD17C,4.064000*%
%ADD18R,1.727200X2.032000*%
%ADD19O,1.727200X2.032000*%
%ADD20R,1.250000X1.000000*%
%ADD21R,1.000000X1.250000*%
%ADD22R,1.000000X2.500000*%
%ADD23R,0.700000X1.300000*%
%ADD24R,1.000000X1.600000*%
%ADD25C,3.810000*%
%ADD26R,3.810000X3.810000*%
%ADD27C,2.000000*%
%ADD28C,1.200000*%
%ADD29C,1.000000*%
%ADD30C,0.800000*%
%ADD31C,2.000000*%
G04 APERTURE END LIST*
D10*
D11*
X57240000Y45990000D03*
X66740000Y30490000D03*
X66740000Y45990000D03*
X57240000Y30490000D03*
D12*
X4440000Y43440000D03*
D13*
X4440000Y38360000D03*
X4440000Y33280000D03*
D14*
X70430000Y37440000D03*
X70430000Y29820000D03*
D15*
X52030000Y21010000D03*
X52030000Y46410000D03*
X49490000Y21010000D03*
X49490000Y46410000D03*
X46950000Y21010000D03*
X46950000Y46410000D03*
X44410000Y21010000D03*
X44410000Y46410000D03*
X41870000Y21010000D03*
X41870000Y46410000D03*
X39330000Y21010000D03*
X39330000Y46410000D03*
X36790000Y21010000D03*
X36790000Y46410000D03*
X34250000Y21010000D03*
X34250000Y46410000D03*
X31710000Y21010000D03*
X31710000Y46410000D03*
X29170000Y21010000D03*
X29170000Y46410000D03*
X26630000Y21010000D03*
X26630000Y46410000D03*
X24090000Y21010000D03*
X24090000Y46410000D03*
X21550000Y21010000D03*
X21550000Y46410000D03*
X19010000Y21010000D03*
X19010000Y46410000D03*
X16470000Y21010000D03*
X16470000Y46410000D03*
D16*
X50380000Y12595000D03*
X50380000Y11325000D03*
X50380000Y10055000D03*
X50380000Y8785000D03*
X55780000Y8785000D03*
X55780000Y10055000D03*
X55780000Y11325000D03*
X55780000Y12595000D03*
D17*
X5077000Y53471000D03*
X69212000Y53725000D03*
X68450000Y4195000D03*
X4035600Y3661600D03*
D16*
X22710000Y9465000D03*
X22710000Y10735000D03*
X22710000Y12005000D03*
X22710000Y13275000D03*
X17310000Y13275000D03*
X17310000Y12005000D03*
X17310000Y10735000D03*
X17310000Y9465000D03*
D18*
X31370000Y9830000D03*
D19*
X33910000Y9830000D03*
X36450000Y9830000D03*
X38990000Y9830000D03*
X41530000Y9830000D03*
D20*
X11850000Y12750000D03*
X11850000Y10750000D03*
D21*
X53960000Y15240000D03*
X51960000Y15240000D03*
D22*
X62810000Y21870000D03*
X59810000Y21870000D03*
X63180000Y50150000D03*
X60180000Y50150000D03*
D23*
X46020000Y8620000D03*
X47920000Y8620000D03*
X48180000Y6300000D03*
X46280000Y6300000D03*
D24*
X9630000Y44020000D03*
X12630000Y44020000D03*
X59860000Y27040000D03*
X62860000Y27040000D03*
D25*
X68300000Y19800000D03*
X68300000Y14720000D03*
D26*
X68300000Y24880000D03*
D25*
X68300000Y9640000D03*
X3680000Y19435000D03*
X3680000Y14355000D03*
D26*
X3680000Y24515000D03*
D25*
X3680000Y9275000D03*
D18*
X23230000Y52290000D03*
D19*
X25770000Y52290000D03*
X28310000Y52290000D03*
X30850000Y52290000D03*
X33390000Y52290000D03*
X35930000Y52290000D03*
X38470000Y52290000D03*
X41010000Y52290000D03*
D27*
X14060000Y17450000D03*
D28*
X45550000Y10860000D03*
D27*
X12720000Y41900000D03*
X58630000Y9460000D03*
X58490000Y14710000D03*
X30460000Y5520000D03*
X13110000Y20830000D03*
D28*
X44380000Y13460000D03*
X46020000Y13200000D03*
X14230000Y10610000D03*
X14260000Y12620000D03*
X27950000Y9630000D03*
X26380000Y11560000D03*
D27*
X31100000Y13820000D03*
X9120000Y24740000D03*
D29*
X48180000Y6300000D02*
X48180000Y5620000D01*
X62090000Y19590000D02*
X59810000Y21870000D01*
X62090000Y7700000D02*
X62090000Y19590000D01*
X58570000Y4180000D02*
X62090000Y7700000D01*
X49620000Y4180000D02*
X58570000Y4180000D01*
X48180000Y5620000D02*
X49620000Y4180000D01*
X11850000Y12750000D02*
X11850000Y15240000D01*
X11850000Y15240000D02*
X14060000Y17450000D01*
D30*
X17310000Y13275000D02*
X15885000Y13275000D01*
D29*
X13200000Y14100000D02*
X11850000Y12750000D01*
X15060000Y14100000D02*
X13200000Y14100000D01*
X15885000Y13275000D02*
X15060000Y14100000D01*
D30*
X48395000Y11325000D02*
X46015000Y11325000D01*
X50380000Y11325000D02*
X48395000Y11325000D01*
X46015000Y11325000D02*
X45550000Y10860000D01*
X59810000Y21870000D02*
X59810000Y21090000D01*
D29*
X59810000Y21090000D02*
X53960000Y15240000D01*
D30*
X57240000Y45990000D02*
X57240000Y47210000D01*
D31*
X57240000Y47210000D02*
X60180000Y50150000D01*
D30*
X59860000Y27040000D02*
X59860000Y27870000D01*
D31*
X59860000Y27870000D02*
X57240000Y30490000D01*
X59860000Y27040000D02*
X59860000Y21920000D01*
D30*
X59860000Y21920000D02*
X59810000Y21870000D01*
D29*
X53960000Y15240000D02*
X53960000Y13030000D01*
X54395000Y12595000D02*
X55780000Y12595000D01*
D30*
X53960000Y13030000D02*
X54395000Y12595000D01*
D31*
X12720000Y41900000D02*
X12720000Y33190000D01*
X19310000Y26600000D02*
X51580000Y26600000D01*
X12720000Y33190000D02*
X19310000Y26600000D01*
D30*
X51960000Y15240000D02*
X51960000Y16070000D01*
X51960000Y16070000D02*
X54940000Y19050000D01*
D31*
X54940000Y19050000D02*
X54940000Y23240000D01*
X54940000Y23240000D02*
X51580000Y26600000D01*
X51580000Y26600000D02*
X50980000Y27200000D01*
X12610000Y43920000D02*
X12610000Y42010000D01*
D30*
X12610000Y42010000D02*
X12720000Y41900000D01*
D29*
X50380000Y10055000D02*
X51935000Y10055000D01*
X51970000Y10090000D02*
X51970000Y15230000D01*
D30*
X51935000Y10055000D02*
X51970000Y10090000D01*
X51970000Y15230000D02*
X51960000Y15240000D01*
D31*
X62860000Y27040000D02*
X62860000Y21920000D01*
D30*
X62860000Y21920000D02*
X62810000Y21870000D01*
X66740000Y30490000D02*
X66310000Y30490000D01*
D31*
X66310000Y30490000D02*
X62860000Y27040000D01*
D29*
X55780000Y10055000D02*
X58505000Y10055000D01*
D30*
X58630000Y9930000D02*
X58630000Y9460000D01*
X58505000Y10055000D02*
X58630000Y9930000D01*
D29*
X55780000Y11325000D02*
X57555000Y11325000D01*
X58430000Y12200000D02*
X57555000Y11325000D01*
X58430000Y14650000D02*
X58430000Y12200000D01*
D30*
X58430000Y14650000D02*
X58490000Y14710000D01*
D31*
X11850000Y6300000D02*
X11850000Y10750000D01*
X12410000Y5740000D02*
X11850000Y6300000D01*
X30240000Y5740000D02*
X12410000Y5740000D01*
D30*
X30460000Y5520000D02*
X30240000Y5740000D01*
X11850000Y10750000D02*
X11380000Y10750000D01*
X11380000Y10750000D02*
X10430000Y11700000D01*
X10430000Y11700000D02*
X10430000Y18150000D01*
D31*
X10430000Y18150000D02*
X13110000Y20830000D01*
D30*
X17310000Y9465000D02*
X15995000Y9465000D01*
X15995000Y9465000D02*
X15660000Y9130000D01*
X15660000Y9130000D02*
X13470000Y9130000D01*
X13470000Y9130000D02*
X11850000Y10750000D01*
D29*
X46020000Y8620000D02*
X46020000Y6560000D01*
X46020000Y6560000D02*
X46280000Y6300000D01*
D30*
X44180000Y10460000D02*
X46020000Y8620000D01*
D29*
X44180000Y13260000D02*
X44180000Y10460000D01*
D30*
X44380000Y13460000D02*
X44180000Y13260000D01*
D29*
X50380000Y8785000D02*
X48085000Y8785000D01*
D30*
X48085000Y8785000D02*
X47920000Y8620000D01*
X46020000Y13200000D02*
X46625000Y12595000D01*
D29*
X46625000Y12595000D02*
X50380000Y12595000D01*
D30*
X14230000Y10610000D02*
X14355000Y10735000D01*
X14355000Y10735000D02*
X17310000Y10735000D01*
X17310000Y12005000D02*
X14875000Y12005000D01*
X14875000Y12005000D02*
X14260000Y12620000D01*
D29*
X27785000Y9465000D02*
X22710000Y9465000D01*
D30*
X27950000Y9630000D02*
X27785000Y9465000D01*
D29*
X24340000Y11700000D02*
X26240000Y11700000D01*
D30*
X26240000Y11700000D02*
X26380000Y11560000D01*
X22710000Y10735000D02*
X24185000Y10735000D01*
X24035000Y12005000D02*
X22710000Y12005000D01*
X24340000Y11700000D02*
X24035000Y12005000D01*
X24340000Y10890000D02*
X24340000Y11700000D01*
X24185000Y10735000D02*
X24340000Y10890000D01*
X31100000Y13820000D02*
X30555000Y13275000D01*
D29*
X30555000Y13275000D02*
X22710000Y13275000D01*
D31*
X9630000Y44020000D02*
X9630000Y25250000D01*
X9630000Y25250000D02*
X9120000Y24740000D01*
X9630000Y44020000D02*
X9630000Y47750000D01*
X9270000Y48110000D02*
X12250000Y51090000D01*
X9630000Y47750000D02*
X9270000Y48110000D01*
D29*
X9630000Y44020000D02*
X9630000Y43760000D01*
X9630000Y43760000D02*
X9270000Y43400000D01*
X9270000Y43400000D02*
X9630000Y44020000D01*
X12610000Y50730000D02*
X12250000Y51090000D01*
D31*
X63180000Y53670000D02*
X63180000Y50150000D01*
X12250000Y51090000D02*
X17090000Y55930000D01*
X17090000Y55930000D02*
X60920000Y55930000D01*
X60920000Y55930000D02*
X63180000Y53670000D01*
D30*
X63180000Y52780000D02*
X63180000Y50150000D01*
X62780000Y53180000D02*
X63180000Y52780000D01*
X63180000Y50150000D02*
X63180000Y49550000D01*
D31*
X63180000Y49550000D02*
X66740000Y45990000D01*
D29*
G36*
X20837014Y53306000D02*
X20837014Y51274000D01*
X20941607Y50718133D01*
X21270124Y50207604D01*
X21771383Y49865108D01*
X22366400Y49744614D01*
X24093600Y49744614D01*
X24649467Y49849207D01*
X24801763Y49947207D01*
X24865489Y49904627D01*
X25770000Y49724709D01*
X26674511Y49904627D01*
X27040000Y50148839D01*
X27405489Y49904627D01*
X28310000Y49724709D01*
X29214511Y49904627D01*
X29580000Y50148839D01*
X29945489Y49904627D01*
X30850000Y49724709D01*
X31754511Y49904627D01*
X32120000Y50148839D01*
X32485489Y49904627D01*
X33390000Y49724709D01*
X34294511Y49904627D01*
X34660000Y50148839D01*
X35025489Y49904627D01*
X35930000Y49724709D01*
X36834511Y49904627D01*
X37601318Y50416991D01*
X38113682Y51183798D01*
X38293600Y52088309D01*
X38293600Y52491691D01*
X38113682Y53396202D01*
X38091099Y53430000D01*
X38848901Y53430000D01*
X38826318Y53396202D01*
X38646400Y52491691D01*
X38646400Y52088309D01*
X38826318Y51183798D01*
X39338682Y50416991D01*
X40105489Y49904627D01*
X41010000Y49724709D01*
X41914511Y49904627D01*
X42681318Y50416991D01*
X43193682Y51183798D01*
X43373600Y52088309D01*
X43373600Y52491691D01*
X43193682Y53396202D01*
X43171099Y53430000D01*
X59884466Y53430000D01*
X60680000Y52634466D01*
X60680000Y50150000D01*
X60739674Y49850000D01*
X60680000Y49550000D01*
X60870301Y48593292D01*
X61412233Y47782233D01*
X63739533Y45454933D01*
X63739481Y45395881D01*
X64195241Y44292857D01*
X65038418Y43448207D01*
X66140645Y42990522D01*
X67334119Y42989481D01*
X68437143Y43445241D01*
X69281793Y44288418D01*
X69739478Y45390645D01*
X69740519Y46584119D01*
X69284759Y47687143D01*
X68441582Y48531793D01*
X67339355Y48989478D01*
X67276001Y48989533D01*
X65680000Y50585534D01*
X65680000Y53024043D01*
X66215970Y51726896D01*
X67208670Y50732462D01*
X68506360Y50193614D01*
X69911476Y50192388D01*
X71210104Y50728970D01*
X71294200Y50812919D01*
X71294200Y39787561D01*
X70929361Y39939055D01*
X69935002Y39939923D01*
X69016002Y39560200D01*
X68312271Y38857696D01*
X67930945Y37939361D01*
X67930077Y36945002D01*
X68309800Y36026002D01*
X69012304Y35322271D01*
X69930639Y34940945D01*
X70924998Y34940077D01*
X71294200Y35092628D01*
X71294200Y32167561D01*
X70929361Y32319055D01*
X69935002Y32319923D01*
X69332721Y32071066D01*
X69284759Y32187143D01*
X68441582Y33031793D01*
X67339355Y33489478D01*
X66145881Y33490519D01*
X65042857Y33034759D01*
X64198207Y32191582D01*
X64000914Y31716448D01*
X61092233Y28807767D01*
X60550301Y27996709D01*
X60360000Y27040000D01*
X60360000Y21920000D01*
X60550301Y20963291D01*
X60780980Y20618056D01*
X60885207Y20064133D01*
X61213724Y19553604D01*
X61714983Y19211108D01*
X62310000Y19090614D01*
X63310000Y19090614D01*
X63865867Y19195207D01*
X64376396Y19523724D01*
X64718892Y20024983D01*
X64795494Y20403254D01*
X65169699Y20963291D01*
X65350673Y21873109D01*
X65799983Y21566108D01*
X66395000Y21445614D01*
X70205000Y21445614D01*
X70760867Y21550207D01*
X71271396Y21878724D01*
X71294200Y21912099D01*
X71294200Y16389965D01*
X71188302Y16646258D01*
X70231296Y17604935D01*
X68980268Y18124408D01*
X67625675Y18125590D01*
X66373742Y17608302D01*
X65415065Y16651296D01*
X64895592Y15400268D01*
X64894410Y14045675D01*
X65411698Y12793742D01*
X66024601Y12179769D01*
X65415065Y11571296D01*
X64895592Y10320268D01*
X64894410Y8965675D01*
X65411698Y7713742D01*
X66192245Y6931832D01*
X65457462Y6198330D01*
X64918614Y4900640D01*
X64917388Y3495524D01*
X65453970Y2196896D01*
X65842188Y1808000D01*
X7090311Y1808000D01*
X7566986Y2955960D01*
X7568212Y4361076D01*
X7031630Y5659704D01*
X6038930Y6654138D01*
X5922567Y6702456D01*
X6564935Y7343704D01*
X7084408Y8594732D01*
X7085590Y9949325D01*
X6568302Y11201258D01*
X5955399Y11815231D01*
X6564935Y12423704D01*
X7084408Y13674732D01*
X7085590Y15029325D01*
X6568302Y16281258D01*
X5611296Y17239935D01*
X4360268Y17759408D01*
X3005675Y17760590D01*
X1753742Y17243302D01*
X1293000Y16783363D01*
X1293000Y21178221D01*
X1775000Y21080614D01*
X5585000Y21080614D01*
X6140867Y21185207D01*
X6651396Y21513724D01*
X6993892Y22014983D01*
X7114386Y22610000D01*
X7114386Y23210494D01*
X7702015Y22621839D01*
X8620538Y22240435D01*
X9615099Y22239567D01*
X10534286Y22619367D01*
X11238161Y23322015D01*
X11238596Y23323062D01*
X11397767Y23482233D01*
X11623456Y23820000D01*
X11939699Y24293291D01*
X12130000Y25250000D01*
X12130000Y30244466D01*
X17542233Y24832233D01*
X18353291Y24290301D01*
X19310000Y24100000D01*
X50544466Y24100000D01*
X50899845Y23744621D01*
X50760000Y23651179D01*
X50408440Y23886084D01*
X49490000Y24068773D01*
X48571560Y23886084D01*
X48220000Y23651179D01*
X47868440Y23886084D01*
X46950000Y24068773D01*
X46031560Y23886084D01*
X45680000Y23651179D01*
X45328440Y23886084D01*
X44410000Y24068773D01*
X43491560Y23886084D01*
X43140000Y23651179D01*
X42788440Y23886084D01*
X41870000Y24068773D01*
X40951560Y23886084D01*
X40600000Y23651179D01*
X40248440Y23886084D01*
X39330000Y24068773D01*
X38411560Y23886084D01*
X38060000Y23651179D01*
X37708440Y23886084D01*
X36790000Y24068773D01*
X35871560Y23886084D01*
X35520000Y23651179D01*
X35168440Y23886084D01*
X34250000Y24068773D01*
X33331560Y23886084D01*
X32980000Y23651179D01*
X32628440Y23886084D01*
X31710000Y24068773D01*
X30791560Y23886084D01*
X30440000Y23651179D01*
X30088440Y23886084D01*
X29170000Y24068773D01*
X28251560Y23886084D01*
X27900000Y23651179D01*
X27548440Y23886084D01*
X26630000Y24068773D01*
X25711560Y23886084D01*
X25360000Y23651179D01*
X25008440Y23886084D01*
X24090000Y24068773D01*
X23171560Y23886084D01*
X22820000Y23651179D01*
X22468440Y23886084D01*
X21550000Y24068773D01*
X20631560Y23886084D01*
X19852944Y23365829D01*
X19332689Y22587213D01*
X19150000Y21668773D01*
X19150000Y20351227D01*
X19332689Y19432787D01*
X19852944Y18654171D01*
X20631560Y18133916D01*
X21550000Y17951227D01*
X22468440Y18133916D01*
X22820000Y18368821D01*
X23171560Y18133916D01*
X24090000Y17951227D01*
X25008440Y18133916D01*
X25360000Y18368821D01*
X25711560Y18133916D01*
X26630000Y17951227D01*
X27548440Y18133916D01*
X27900000Y18368821D01*
X28251560Y18133916D01*
X29170000Y17951227D01*
X30088440Y18133916D01*
X30440000Y18368821D01*
X30791560Y18133916D01*
X31710000Y17951227D01*
X32628440Y18133916D01*
X32980000Y18368821D01*
X33331560Y18133916D01*
X34250000Y17951227D01*
X35168440Y18133916D01*
X35520000Y18368821D01*
X35871560Y18133916D01*
X36790000Y17951227D01*
X37708440Y18133916D01*
X38060000Y18368821D01*
X38411560Y18133916D01*
X39330000Y17951227D01*
X40248440Y18133916D01*
X40600000Y18368821D01*
X40951560Y18133916D01*
X41870000Y17951227D01*
X42788440Y18133916D01*
X43140000Y18368821D01*
X43491560Y18133916D01*
X44410000Y17951227D01*
X45328440Y18133916D01*
X45680000Y18368821D01*
X46031560Y18133916D01*
X46950000Y17951227D01*
X47868440Y18133916D01*
X48220000Y18368821D01*
X48571560Y18133916D01*
X49490000Y17951227D01*
X50408440Y18133916D01*
X50760000Y18368821D01*
X51111560Y18133916D01*
X51299522Y18096528D01*
X50616497Y17413503D01*
X50204629Y16797099D01*
X50173090Y16638544D01*
X50051108Y16460017D01*
X49930614Y15865000D01*
X49930614Y14615000D01*
X49934377Y14595000D01*
X47594692Y14595000D01*
X47211107Y14979255D01*
X46439548Y15299634D01*
X45604117Y15300363D01*
X45513807Y15263048D01*
X44799548Y15559634D01*
X43964117Y15560363D01*
X43192000Y15241331D01*
X42600745Y14651107D01*
X42355155Y14059661D01*
X42332241Y14025367D01*
X42324265Y13985268D01*
X42280366Y13879548D01*
X42280265Y13764067D01*
X42180000Y13260000D01*
X42180000Y12265998D01*
X41530000Y12395291D01*
X40625489Y12215373D01*
X40260000Y11971161D01*
X39894511Y12215373D01*
X38990000Y12395291D01*
X38085489Y12215373D01*
X37720000Y11971161D01*
X37354511Y12215373D01*
X36450000Y12395291D01*
X35545489Y12215373D01*
X35180000Y11971161D01*
X34814511Y12215373D01*
X33910000Y12395291D01*
X33037589Y12221758D01*
X33218161Y12402015D01*
X33599565Y13320538D01*
X33600433Y14315099D01*
X33220633Y15234286D01*
X32517985Y15938161D01*
X31599462Y16319565D01*
X30604901Y16320433D01*
X29685714Y15940633D01*
X29018919Y15275000D01*
X22710000Y15275000D01*
X21944633Y15122759D01*
X21910133Y15099707D01*
X21379133Y14999793D01*
X20868604Y14671276D01*
X20526108Y14170017D01*
X20405614Y13575000D01*
X20405614Y12975000D01*
X20470963Y12627701D01*
X20405614Y12305000D01*
X20405614Y11705000D01*
X20470963Y11357701D01*
X20405614Y11035000D01*
X20405614Y10435000D01*
X20470963Y10087701D01*
X20405614Y9765000D01*
X20405614Y9165000D01*
X20510207Y8609133D01*
X20747738Y8240000D01*
X19268424Y8240000D01*
X19493892Y8569983D01*
X19614386Y9165000D01*
X19614386Y9765000D01*
X19549037Y10112299D01*
X19614386Y10435000D01*
X19614386Y11035000D01*
X19549037Y11382299D01*
X19614386Y11705000D01*
X19614386Y12305000D01*
X19509793Y12860867D01*
X19181276Y13371396D01*
X18680017Y13713892D01*
X18085000Y13834386D01*
X17665001Y13834386D01*
X17310000Y13905000D01*
X15944500Y13905000D01*
X15451107Y14399255D01*
X14679548Y14719634D01*
X13844117Y14720363D01*
X13072000Y14401331D01*
X12480745Y13811107D01*
X12330000Y13448072D01*
X12330000Y16514466D01*
X14651483Y18835949D01*
X14772944Y18654171D01*
X15551560Y18133916D01*
X16470000Y17951227D01*
X17388440Y18133916D01*
X18167056Y18654171D01*
X18687311Y19432787D01*
X18870000Y20351227D01*
X18870000Y21668773D01*
X18687311Y22587213D01*
X18167056Y23365829D01*
X17388440Y23886084D01*
X16470000Y24068773D01*
X15551560Y23886084D01*
X14772944Y23365829D01*
X14501277Y22959251D01*
X13609462Y23329565D01*
X12614901Y23330433D01*
X11695714Y22950633D01*
X10991839Y22247985D01*
X10991404Y22246938D01*
X8662233Y19917767D01*
X8120301Y19106708D01*
X7930000Y18150000D01*
X8120301Y17193292D01*
X8530000Y16580134D01*
X8530000Y11700000D01*
X8674629Y10972901D01*
X8984068Y10509793D01*
X9086497Y10356497D01*
X9350000Y10092994D01*
X9350000Y6300000D01*
X9540301Y5343291D01*
X10047908Y4583604D01*
X10082233Y4532233D01*
X10642233Y3972233D01*
X11453292Y3430300D01*
X12410000Y3240000D01*
X29431767Y3240000D01*
X29960538Y3020435D01*
X30955099Y3019567D01*
X31874286Y3399367D01*
X32578161Y4102015D01*
X32959565Y5020538D01*
X32960433Y6015099D01*
X32580633Y6934286D01*
X31877985Y7638161D01*
X31705312Y7709861D01*
X31196709Y8049699D01*
X30240000Y8240000D01*
X29530015Y8240000D01*
X29729255Y8438893D01*
X30049634Y9210452D01*
X30050363Y10045883D01*
X29731331Y10818000D01*
X29275128Y11275000D01*
X30555000Y11275000D01*
X30782618Y11320276D01*
X31595099Y11319567D01*
X32130211Y11540671D01*
X31726318Y10936202D01*
X31546400Y10031691D01*
X31546400Y9628309D01*
X31726318Y8723798D01*
X32238682Y7956991D01*
X33005489Y7444627D01*
X33910000Y7264709D01*
X34814511Y7444627D01*
X35180000Y7688839D01*
X35545489Y7444627D01*
X36450000Y7264709D01*
X37354511Y7444627D01*
X37720000Y7688839D01*
X38085489Y7444627D01*
X38990000Y7264709D01*
X39894511Y7444627D01*
X40260000Y7688839D01*
X40625489Y7444627D01*
X41530000Y7264709D01*
X42434511Y7444627D01*
X43201318Y7956991D01*
X43519624Y8433370D01*
X44020000Y7932994D01*
X44020000Y6560005D01*
X44019999Y6560000D01*
X44172241Y5794633D01*
X44452252Y5375566D01*
X44505207Y5094133D01*
X44833724Y4583604D01*
X45334983Y4241108D01*
X45930000Y4120614D01*
X46630000Y4120614D01*
X47185867Y4225207D01*
X47696396Y4553724D01*
X48038892Y5054983D01*
X48159386Y5650000D01*
X48159386Y5693632D01*
X48280001Y6300000D01*
X48252031Y6440614D01*
X48270000Y6440614D01*
X48825867Y6545207D01*
X49198515Y6785000D01*
X50380000Y6785000D01*
X51145367Y6937241D01*
X51179867Y6960293D01*
X51710867Y7060207D01*
X52221396Y7388724D01*
X52563892Y7889983D01*
X52625107Y8192271D01*
X52700367Y8207241D01*
X53349214Y8640786D01*
X53363233Y8661767D01*
X53384214Y8675786D01*
X53475614Y8812576D01*
X53475614Y8485000D01*
X53580207Y7929133D01*
X53908724Y7418604D01*
X54409983Y7076108D01*
X55005000Y6955614D01*
X56555000Y6955614D01*
X57110867Y7060207D01*
X57416550Y7256909D01*
X58130538Y6960435D01*
X59125099Y6959567D01*
X60044286Y7339367D01*
X60748161Y8042015D01*
X61129565Y8960538D01*
X61130433Y9955099D01*
X60750633Y10874286D01*
X60243077Y11382728D01*
X60277759Y11434633D01*
X60279943Y11445614D01*
X60430001Y12200000D01*
X60430000Y12200005D01*
X60430000Y13114165D01*
X60608161Y13292015D01*
X60989565Y14210538D01*
X60990433Y15205099D01*
X60610633Y16124286D01*
X59907985Y16828161D01*
X58989462Y17209565D01*
X57994901Y17210433D01*
X57075714Y16830633D01*
X56371839Y16127985D01*
X55990435Y15209462D01*
X55989567Y14214901D01*
X56357266Y13325000D01*
X55780000Y13325000D01*
X55014633Y13172759D01*
X54980133Y13149707D01*
X54449133Y13049793D01*
X53970000Y12741479D01*
X53970000Y14519269D01*
X53989386Y14615000D01*
X53989386Y15412380D01*
X55173440Y16596434D01*
X55896709Y16740301D01*
X56707767Y17282233D01*
X57249699Y18093291D01*
X57440000Y19050000D01*
X57440000Y23240000D01*
X57423686Y23322015D01*
X57249700Y24196708D01*
X56707767Y25007767D01*
X52747767Y28967767D01*
X51936708Y29509699D01*
X50980000Y29700000D01*
X50023292Y29509699D01*
X49410134Y29100000D01*
X20345534Y29100000D01*
X15220000Y34225534D01*
X15220000Y41898964D01*
X15220433Y42395099D01*
X15110000Y42662368D01*
X15110000Y43828957D01*
X15551560Y43533916D01*
X16470000Y43351227D01*
X17388440Y43533916D01*
X18167056Y44054171D01*
X18687311Y44832787D01*
X18870000Y45751227D01*
X18870000Y47068773D01*
X19150000Y47068773D01*
X19150000Y45751227D01*
X19332689Y44832787D01*
X19852944Y44054171D01*
X20631560Y43533916D01*
X21550000Y43351227D01*
X22468440Y43533916D01*
X22820000Y43768821D01*
X23171560Y43533916D01*
X24090000Y43351227D01*
X25008440Y43533916D01*
X25360000Y43768821D01*
X25711560Y43533916D01*
X26630000Y43351227D01*
X27548440Y43533916D01*
X27900000Y43768821D01*
X28251560Y43533916D01*
X29170000Y43351227D01*
X30088440Y43533916D01*
X30440000Y43768821D01*
X30791560Y43533916D01*
X31710000Y43351227D01*
X32628440Y43533916D01*
X32980000Y43768821D01*
X33331560Y43533916D01*
X34250000Y43351227D01*
X35168440Y43533916D01*
X35520000Y43768821D01*
X35871560Y43533916D01*
X36790000Y43351227D01*
X37708440Y43533916D01*
X38060000Y43768821D01*
X38411560Y43533916D01*
X39330000Y43351227D01*
X40248440Y43533916D01*
X40600000Y43768821D01*
X40951560Y43533916D01*
X41870000Y43351227D01*
X42788440Y43533916D01*
X43140000Y43768821D01*
X43491560Y43533916D01*
X44410000Y43351227D01*
X45328440Y43533916D01*
X45680000Y43768821D01*
X46031560Y43533916D01*
X46950000Y43351227D01*
X47868440Y43533916D01*
X48220000Y43768821D01*
X48571560Y43533916D01*
X49490000Y43351227D01*
X50408440Y43533916D01*
X50760000Y43768821D01*
X51111560Y43533916D01*
X52030000Y43351227D01*
X52948440Y43533916D01*
X53727056Y44054171D01*
X54247311Y44832787D01*
X54430000Y45751227D01*
X54430000Y47068773D01*
X54247311Y47987213D01*
X53727056Y48765829D01*
X52948440Y49286084D01*
X52030000Y49468773D01*
X51111560Y49286084D01*
X50760000Y49051179D01*
X50408440Y49286084D01*
X49490000Y49468773D01*
X48571560Y49286084D01*
X48220000Y49051179D01*
X47868440Y49286084D01*
X46950000Y49468773D01*
X46031560Y49286084D01*
X45680000Y49051179D01*
X45328440Y49286084D01*
X44410000Y49468773D01*
X43491560Y49286084D01*
X43140000Y49051179D01*
X42788440Y49286084D01*
X41870000Y49468773D01*
X40951560Y49286084D01*
X40600000Y49051179D01*
X40248440Y49286084D01*
X39330000Y49468773D01*
X38411560Y49286084D01*
X38060000Y49051179D01*
X37708440Y49286084D01*
X36790000Y49468773D01*
X35871560Y49286084D01*
X35520000Y49051179D01*
X35168440Y49286084D01*
X34250000Y49468773D01*
X33331560Y49286084D01*
X32980000Y49051179D01*
X32628440Y49286084D01*
X31710000Y49468773D01*
X30791560Y49286084D01*
X30440000Y49051179D01*
X30088440Y49286084D01*
X29170000Y49468773D01*
X28251560Y49286084D01*
X27900000Y49051179D01*
X27548440Y49286084D01*
X26630000Y49468773D01*
X25711560Y49286084D01*
X25360000Y49051179D01*
X25008440Y49286084D01*
X24090000Y49468773D01*
X23171560Y49286084D01*
X22820000Y49051179D01*
X22468440Y49286084D01*
X21550000Y49468773D01*
X20631560Y49286084D01*
X19852944Y48765829D01*
X19332689Y47987213D01*
X19150000Y47068773D01*
X18870000Y47068773D01*
X18687311Y47987213D01*
X18167056Y48765829D01*
X17388440Y49286084D01*
X16470000Y49468773D01*
X15551560Y49286084D01*
X14772944Y48765829D01*
X14252689Y47987213D01*
X14070000Y47068773D01*
X14070000Y45993175D01*
X13725017Y46228892D01*
X13130000Y46349386D01*
X12965001Y46349386D01*
X12610000Y46420000D01*
X12254999Y46349386D01*
X12130000Y46349386D01*
X12130000Y47434466D01*
X13985356Y49289822D01*
X14024214Y49315786D01*
X14050178Y49354644D01*
X18125534Y53430000D01*
X20862125Y53430000D01*
X20837014Y53306000D01*
X20837014Y53306000D01*
G37*
X20837014Y53306000D02*
X20837014Y51274000D01*
X20941607Y50718133D01*
X21270124Y50207604D01*
X21771383Y49865108D01*
X22366400Y49744614D01*
X24093600Y49744614D01*
X24649467Y49849207D01*
X24801763Y49947207D01*
X24865489Y49904627D01*
X25770000Y49724709D01*
X26674511Y49904627D01*
X27040000Y50148839D01*
X27405489Y49904627D01*
X28310000Y49724709D01*
X29214511Y49904627D01*
X29580000Y50148839D01*
X29945489Y49904627D01*
X30850000Y49724709D01*
X31754511Y49904627D01*
X32120000Y50148839D01*
X32485489Y49904627D01*
X33390000Y49724709D01*
X34294511Y49904627D01*
X34660000Y50148839D01*
X35025489Y49904627D01*
X35930000Y49724709D01*
X36834511Y49904627D01*
X37601318Y50416991D01*
X38113682Y51183798D01*
X38293600Y52088309D01*
X38293600Y52491691D01*
X38113682Y53396202D01*
X38091099Y53430000D01*
X38848901Y53430000D01*
X38826318Y53396202D01*
X38646400Y52491691D01*
X38646400Y52088309D01*
X38826318Y51183798D01*
X39338682Y50416991D01*
X40105489Y49904627D01*
X41010000Y49724709D01*
X41914511Y49904627D01*
X42681318Y50416991D01*
X43193682Y51183798D01*
X43373600Y52088309D01*
X43373600Y52491691D01*
X43193682Y53396202D01*
X43171099Y53430000D01*
X59884466Y53430000D01*
X60680000Y52634466D01*
X60680000Y50150000D01*
X60739674Y49850000D01*
X60680000Y49550000D01*
X60870301Y48593292D01*
X61412233Y47782233D01*
X63739533Y45454933D01*
X63739481Y45395881D01*
X64195241Y44292857D01*
X65038418Y43448207D01*
X66140645Y42990522D01*
X67334119Y42989481D01*
X68437143Y43445241D01*
X69281793Y44288418D01*
X69739478Y45390645D01*
X69740519Y46584119D01*
X69284759Y47687143D01*
X68441582Y48531793D01*
X67339355Y48989478D01*
X67276001Y48989533D01*
X65680000Y50585534D01*
X65680000Y53024043D01*
X66215970Y51726896D01*
X67208670Y50732462D01*
X68506360Y50193614D01*
X69911476Y50192388D01*
X71210104Y50728970D01*
X71294200Y50812919D01*
X71294200Y39787561D01*
X70929361Y39939055D01*
X69935002Y39939923D01*
X69016002Y39560200D01*
X68312271Y38857696D01*
X67930945Y37939361D01*
X67930077Y36945002D01*
X68309800Y36026002D01*
X69012304Y35322271D01*
X69930639Y34940945D01*
X70924998Y34940077D01*
X71294200Y35092628D01*
X71294200Y32167561D01*
X70929361Y32319055D01*
X69935002Y32319923D01*
X69332721Y32071066D01*
X69284759Y32187143D01*
X68441582Y33031793D01*
X67339355Y33489478D01*
X66145881Y33490519D01*
X65042857Y33034759D01*
X64198207Y32191582D01*
X64000914Y31716448D01*
X61092233Y28807767D01*
X60550301Y27996709D01*
X60360000Y27040000D01*
X60360000Y21920000D01*
X60550301Y20963291D01*
X60780980Y20618056D01*
X60885207Y20064133D01*
X61213724Y19553604D01*
X61714983Y19211108D01*
X62310000Y19090614D01*
X63310000Y19090614D01*
X63865867Y19195207D01*
X64376396Y19523724D01*
X64718892Y20024983D01*
X64795494Y20403254D01*
X65169699Y20963291D01*
X65350673Y21873109D01*
X65799983Y21566108D01*
X66395000Y21445614D01*
X70205000Y21445614D01*
X70760867Y21550207D01*
X71271396Y21878724D01*
X71294200Y21912099D01*
X71294200Y16389965D01*
X71188302Y16646258D01*
X70231296Y17604935D01*
X68980268Y18124408D01*
X67625675Y18125590D01*
X66373742Y17608302D01*
X65415065Y16651296D01*
X64895592Y15400268D01*
X64894410Y14045675D01*
X65411698Y12793742D01*
X66024601Y12179769D01*
X65415065Y11571296D01*
X64895592Y10320268D01*
X64894410Y8965675D01*
X65411698Y7713742D01*
X66192245Y6931832D01*
X65457462Y6198330D01*
X64918614Y4900640D01*
X64917388Y3495524D01*
X65453970Y2196896D01*
X65842188Y1808000D01*
X7090311Y1808000D01*
X7566986Y2955960D01*
X7568212Y4361076D01*
X7031630Y5659704D01*
X6038930Y6654138D01*
X5922567Y6702456D01*
X6564935Y7343704D01*
X7084408Y8594732D01*
X7085590Y9949325D01*
X6568302Y11201258D01*
X5955399Y11815231D01*
X6564935Y12423704D01*
X7084408Y13674732D01*
X7085590Y15029325D01*
X6568302Y16281258D01*
X5611296Y17239935D01*
X4360268Y17759408D01*
X3005675Y17760590D01*
X1753742Y17243302D01*
X1293000Y16783363D01*
X1293000Y21178221D01*
X1775000Y21080614D01*
X5585000Y21080614D01*
X6140867Y21185207D01*
X6651396Y21513724D01*
X6993892Y22014983D01*
X7114386Y22610000D01*
X7114386Y23210494D01*
X7702015Y22621839D01*
X8620538Y22240435D01*
X9615099Y22239567D01*
X10534286Y22619367D01*
X11238161Y23322015D01*
X11238596Y23323062D01*
X11397767Y23482233D01*
X11623456Y23820000D01*
X11939699Y24293291D01*
X12130000Y25250000D01*
X12130000Y30244466D01*
X17542233Y24832233D01*
X18353291Y24290301D01*
X19310000Y24100000D01*
X50544466Y24100000D01*
X50899845Y23744621D01*
X50760000Y23651179D01*
X50408440Y23886084D01*
X49490000Y24068773D01*
X48571560Y23886084D01*
X48220000Y23651179D01*
X47868440Y23886084D01*
X46950000Y24068773D01*
X46031560Y23886084D01*
X45680000Y23651179D01*
X45328440Y23886084D01*
X44410000Y24068773D01*
X43491560Y23886084D01*
X43140000Y23651179D01*
X42788440Y23886084D01*
X41870000Y24068773D01*
X40951560Y23886084D01*
X40600000Y23651179D01*
X40248440Y23886084D01*
X39330000Y24068773D01*
X38411560Y23886084D01*
X38060000Y23651179D01*
X37708440Y23886084D01*
X36790000Y24068773D01*
X35871560Y23886084D01*
X35520000Y23651179D01*
X35168440Y23886084D01*
X34250000Y24068773D01*
X33331560Y23886084D01*
X32980000Y23651179D01*
X32628440Y23886084D01*
X31710000Y24068773D01*
X30791560Y23886084D01*
X30440000Y23651179D01*
X30088440Y23886084D01*
X29170000Y24068773D01*
X28251560Y23886084D01*
X27900000Y23651179D01*
X27548440Y23886084D01*
X26630000Y24068773D01*
X25711560Y23886084D01*
X25360000Y23651179D01*
X25008440Y23886084D01*
X24090000Y24068773D01*
X23171560Y23886084D01*
X22820000Y23651179D01*
X22468440Y23886084D01*
X21550000Y24068773D01*
X20631560Y23886084D01*
X19852944Y23365829D01*
X19332689Y22587213D01*
X19150000Y21668773D01*
X19150000Y20351227D01*
X19332689Y19432787D01*
X19852944Y18654171D01*
X20631560Y18133916D01*
X21550000Y17951227D01*
X22468440Y18133916D01*
X22820000Y18368821D01*
X23171560Y18133916D01*
X24090000Y17951227D01*
X25008440Y18133916D01*
X25360000Y18368821D01*
X25711560Y18133916D01*
X26630000Y17951227D01*
X27548440Y18133916D01*
X27900000Y18368821D01*
X28251560Y18133916D01*
X29170000Y17951227D01*
X30088440Y18133916D01*
X30440000Y18368821D01*
X30791560Y18133916D01*
X31710000Y17951227D01*
X32628440Y18133916D01*
X32980000Y18368821D01*
X33331560Y18133916D01*
X34250000Y17951227D01*
X35168440Y18133916D01*
X35520000Y18368821D01*
X35871560Y18133916D01*
X36790000Y17951227D01*
X37708440Y18133916D01*
X38060000Y18368821D01*
X38411560Y18133916D01*
X39330000Y17951227D01*
X40248440Y18133916D01*
X40600000Y18368821D01*
X40951560Y18133916D01*
X41870000Y17951227D01*
X42788440Y18133916D01*
X43140000Y18368821D01*
X43491560Y18133916D01*
X44410000Y17951227D01*
X45328440Y18133916D01*
X45680000Y18368821D01*
X46031560Y18133916D01*
X46950000Y17951227D01*
X47868440Y18133916D01*
X48220000Y18368821D01*
X48571560Y18133916D01*
X49490000Y17951227D01*
X50408440Y18133916D01*
X50760000Y18368821D01*
X51111560Y18133916D01*
X51299522Y18096528D01*
X50616497Y17413503D01*
X50204629Y16797099D01*
X50173090Y16638544D01*
X50051108Y16460017D01*
X49930614Y15865000D01*
X49930614Y14615000D01*
X49934377Y14595000D01*
X47594692Y14595000D01*
X47211107Y14979255D01*
X46439548Y15299634D01*
X45604117Y15300363D01*
X45513807Y15263048D01*
X44799548Y15559634D01*
X43964117Y15560363D01*
X43192000Y15241331D01*
X42600745Y14651107D01*
X42355155Y14059661D01*
X42332241Y14025367D01*
X42324265Y13985268D01*
X42280366Y13879548D01*
X42280265Y13764067D01*
X42180000Y13260000D01*
X42180000Y12265998D01*
X41530000Y12395291D01*
X40625489Y12215373D01*
X40260000Y11971161D01*
X39894511Y12215373D01*
X38990000Y12395291D01*
X38085489Y12215373D01*
X37720000Y11971161D01*
X37354511Y12215373D01*
X36450000Y12395291D01*
X35545489Y12215373D01*
X35180000Y11971161D01*
X34814511Y12215373D01*
X33910000Y12395291D01*
X33037589Y12221758D01*
X33218161Y12402015D01*
X33599565Y13320538D01*
X33600433Y14315099D01*
X33220633Y15234286D01*
X32517985Y15938161D01*
X31599462Y16319565D01*
X30604901Y16320433D01*
X29685714Y15940633D01*
X29018919Y15275000D01*
X22710000Y15275000D01*
X21944633Y15122759D01*
X21910133Y15099707D01*
X21379133Y14999793D01*
X20868604Y14671276D01*
X20526108Y14170017D01*
X20405614Y13575000D01*
X20405614Y12975000D01*
X20470963Y12627701D01*
X20405614Y12305000D01*
X20405614Y11705000D01*
X20470963Y11357701D01*
X20405614Y11035000D01*
X20405614Y10435000D01*
X20470963Y10087701D01*
X20405614Y9765000D01*
X20405614Y9165000D01*
X20510207Y8609133D01*
X20747738Y8240000D01*
X19268424Y8240000D01*
X19493892Y8569983D01*
X19614386Y9165000D01*
X19614386Y9765000D01*
X19549037Y10112299D01*
X19614386Y10435000D01*
X19614386Y11035000D01*
X19549037Y11382299D01*
X19614386Y11705000D01*
X19614386Y12305000D01*
X19509793Y12860867D01*
X19181276Y13371396D01*
X18680017Y13713892D01*
X18085000Y13834386D01*
X17665001Y13834386D01*
X17310000Y13905000D01*
X15944500Y13905000D01*
X15451107Y14399255D01*
X14679548Y14719634D01*
X13844117Y14720363D01*
X13072000Y14401331D01*
X12480745Y13811107D01*
X12330000Y13448072D01*
X12330000Y16514466D01*
X14651483Y18835949D01*
X14772944Y18654171D01*
X15551560Y18133916D01*
X16470000Y17951227D01*
X17388440Y18133916D01*
X18167056Y18654171D01*
X18687311Y19432787D01*
X18870000Y20351227D01*
X18870000Y21668773D01*
X18687311Y22587213D01*
X18167056Y23365829D01*
X17388440Y23886084D01*
X16470000Y24068773D01*
X15551560Y23886084D01*
X14772944Y23365829D01*
X14501277Y22959251D01*
X13609462Y23329565D01*
X12614901Y23330433D01*
X11695714Y22950633D01*
X10991839Y22247985D01*
X10991404Y22246938D01*
X8662233Y19917767D01*
X8120301Y19106708D01*
X7930000Y18150000D01*
X8120301Y17193292D01*
X8530000Y16580134D01*
X8530000Y11700000D01*
X8674629Y10972901D01*
X8984068Y10509793D01*
X9086497Y10356497D01*
X9350000Y10092994D01*
X9350000Y6300000D01*
X9540301Y5343291D01*
X10047908Y4583604D01*
X10082233Y4532233D01*
X10642233Y3972233D01*
X11453292Y3430300D01*
X12410000Y3240000D01*
X29431767Y3240000D01*
X29960538Y3020435D01*
X30955099Y3019567D01*
X31874286Y3399367D01*
X32578161Y4102015D01*
X32959565Y5020538D01*
X32960433Y6015099D01*
X32580633Y6934286D01*
X31877985Y7638161D01*
X31705312Y7709861D01*
X31196709Y8049699D01*
X30240000Y8240000D01*
X29530015Y8240000D01*
X29729255Y8438893D01*
X30049634Y9210452D01*
X30050363Y10045883D01*
X29731331Y10818000D01*
X29275128Y11275000D01*
X30555000Y11275000D01*
X30782618Y11320276D01*
X31595099Y11319567D01*
X32130211Y11540671D01*
X31726318Y10936202D01*
X31546400Y10031691D01*
X31546400Y9628309D01*
X31726318Y8723798D01*
X32238682Y7956991D01*
X33005489Y7444627D01*
X33910000Y7264709D01*
X34814511Y7444627D01*
X35180000Y7688839D01*
X35545489Y7444627D01*
X36450000Y7264709D01*
X37354511Y7444627D01*
X37720000Y7688839D01*
X38085489Y7444627D01*
X38990000Y7264709D01*
X39894511Y7444627D01*
X40260000Y7688839D01*
X40625489Y7444627D01*
X41530000Y7264709D01*
X42434511Y7444627D01*
X43201318Y7956991D01*
X43519624Y8433370D01*
X44020000Y7932994D01*
X44020000Y6560005D01*
X44019999Y6560000D01*
X44172241Y5794633D01*
X44452252Y5375566D01*
X44505207Y5094133D01*
X44833724Y4583604D01*
X45334983Y4241108D01*
X45930000Y4120614D01*
X46630000Y4120614D01*
X47185867Y4225207D01*
X47696396Y4553724D01*
X48038892Y5054983D01*
X48159386Y5650000D01*
X48159386Y5693632D01*
X48280001Y6300000D01*
X48252031Y6440614D01*
X48270000Y6440614D01*
X48825867Y6545207D01*
X49198515Y6785000D01*
X50380000Y6785000D01*
X51145367Y6937241D01*
X51179867Y6960293D01*
X51710867Y7060207D01*
X52221396Y7388724D01*
X52563892Y7889983D01*
X52625107Y8192271D01*
X52700367Y8207241D01*
X53349214Y8640786D01*
X53363233Y8661767D01*
X53384214Y8675786D01*
X53475614Y8812576D01*
X53475614Y8485000D01*
X53580207Y7929133D01*
X53908724Y7418604D01*
X54409983Y7076108D01*
X55005000Y6955614D01*
X56555000Y6955614D01*
X57110867Y7060207D01*
X57416550Y7256909D01*
X58130538Y6960435D01*
X59125099Y6959567D01*
X60044286Y7339367D01*
X60748161Y8042015D01*
X61129565Y8960538D01*
X61130433Y9955099D01*
X60750633Y10874286D01*
X60243077Y11382728D01*
X60277759Y11434633D01*
X60279943Y11445614D01*
X60430001Y12200000D01*
X60430000Y12200005D01*
X60430000Y13114165D01*
X60608161Y13292015D01*
X60989565Y14210538D01*
X60990433Y15205099D01*
X60610633Y16124286D01*
X59907985Y16828161D01*
X58989462Y17209565D01*
X57994901Y17210433D01*
X57075714Y16830633D01*
X56371839Y16127985D01*
X55990435Y15209462D01*
X55989567Y14214901D01*
X56357266Y13325000D01*
X55780000Y13325000D01*
X55014633Y13172759D01*
X54980133Y13149707D01*
X54449133Y13049793D01*
X53970000Y12741479D01*
X53970000Y14519269D01*
X53989386Y14615000D01*
X53989386Y15412380D01*
X55173440Y16596434D01*
X55896709Y16740301D01*
X56707767Y17282233D01*
X57249699Y18093291D01*
X57440000Y19050000D01*
X57440000Y23240000D01*
X57423686Y23322015D01*
X57249700Y24196708D01*
X56707767Y25007767D01*
X52747767Y28967767D01*
X51936708Y29509699D01*
X50980000Y29700000D01*
X50023292Y29509699D01*
X49410134Y29100000D01*
X20345534Y29100000D01*
X15220000Y34225534D01*
X15220000Y41898964D01*
X15220433Y42395099D01*
X15110000Y42662368D01*
X15110000Y43828957D01*
X15551560Y43533916D01*
X16470000Y43351227D01*
X17388440Y43533916D01*
X18167056Y44054171D01*
X18687311Y44832787D01*
X18870000Y45751227D01*
X18870000Y47068773D01*
X19150000Y47068773D01*
X19150000Y45751227D01*
X19332689Y44832787D01*
X19852944Y44054171D01*
X20631560Y43533916D01*
X21550000Y43351227D01*
X22468440Y43533916D01*
X22820000Y43768821D01*
X23171560Y43533916D01*
X24090000Y43351227D01*
X25008440Y43533916D01*
X25360000Y43768821D01*
X25711560Y43533916D01*
X26630000Y43351227D01*
X27548440Y43533916D01*
X27900000Y43768821D01*
X28251560Y43533916D01*
X29170000Y43351227D01*
X30088440Y43533916D01*
X30440000Y43768821D01*
X30791560Y43533916D01*
X31710000Y43351227D01*
X32628440Y43533916D01*
X32980000Y43768821D01*
X33331560Y43533916D01*
X34250000Y43351227D01*
X35168440Y43533916D01*
X35520000Y43768821D01*
X35871560Y43533916D01*
X36790000Y43351227D01*
X37708440Y43533916D01*
X38060000Y43768821D01*
X38411560Y43533916D01*
X39330000Y43351227D01*
X40248440Y43533916D01*
X40600000Y43768821D01*
X40951560Y43533916D01*
X41870000Y43351227D01*
X42788440Y43533916D01*
X43140000Y43768821D01*
X43491560Y43533916D01*
X44410000Y43351227D01*
X45328440Y43533916D01*
X45680000Y43768821D01*
X46031560Y43533916D01*
X46950000Y43351227D01*
X47868440Y43533916D01*
X48220000Y43768821D01*
X48571560Y43533916D01*
X49490000Y43351227D01*
X50408440Y43533916D01*
X50760000Y43768821D01*
X51111560Y43533916D01*
X52030000Y43351227D01*
X52948440Y43533916D01*
X53727056Y44054171D01*
X54247311Y44832787D01*
X54430000Y45751227D01*
X54430000Y47068773D01*
X54247311Y47987213D01*
X53727056Y48765829D01*
X52948440Y49286084D01*
X52030000Y49468773D01*
X51111560Y49286084D01*
X50760000Y49051179D01*
X50408440Y49286084D01*
X49490000Y49468773D01*
X48571560Y49286084D01*
X48220000Y49051179D01*
X47868440Y49286084D01*
X46950000Y49468773D01*
X46031560Y49286084D01*
X45680000Y49051179D01*
X45328440Y49286084D01*
X44410000Y49468773D01*
X43491560Y49286084D01*
X43140000Y49051179D01*
X42788440Y49286084D01*
X41870000Y49468773D01*
X40951560Y49286084D01*
X40600000Y49051179D01*
X40248440Y49286084D01*
X39330000Y49468773D01*
X38411560Y49286084D01*
X38060000Y49051179D01*
X37708440Y49286084D01*
X36790000Y49468773D01*
X35871560Y49286084D01*
X35520000Y49051179D01*
X35168440Y49286084D01*
X34250000Y49468773D01*
X33331560Y49286084D01*
X32980000Y49051179D01*
X32628440Y49286084D01*
X31710000Y49468773D01*
X30791560Y49286084D01*
X30440000Y49051179D01*
X30088440Y49286084D01*
X29170000Y49468773D01*
X28251560Y49286084D01*
X27900000Y49051179D01*
X27548440Y49286084D01*
X26630000Y49468773D01*
X25711560Y49286084D01*
X25360000Y49051179D01*
X25008440Y49286084D01*
X24090000Y49468773D01*
X23171560Y49286084D01*
X22820000Y49051179D01*
X22468440Y49286084D01*
X21550000Y49468773D01*
X20631560Y49286084D01*
X19852944Y48765829D01*
X19332689Y47987213D01*
X19150000Y47068773D01*
X18870000Y47068773D01*
X18687311Y47987213D01*
X18167056Y48765829D01*
X17388440Y49286084D01*
X16470000Y49468773D01*
X15551560Y49286084D01*
X14772944Y48765829D01*
X14252689Y47987213D01*
X14070000Y47068773D01*
X14070000Y45993175D01*
X13725017Y46228892D01*
X13130000Y46349386D01*
X12965001Y46349386D01*
X12610000Y46420000D01*
X12254999Y46349386D01*
X12130000Y46349386D01*
X12130000Y47434466D01*
X13985356Y49289822D01*
X14024214Y49315786D01*
X14050178Y49354644D01*
X18125534Y53430000D01*
X20862125Y53430000D01*
X20837014Y53306000D01*
G36*
X7502233Y49877767D02*
X6960301Y49066708D01*
X6770000Y48110000D01*
X6960301Y47153292D01*
X7130000Y46899319D01*
X7130000Y45273316D01*
X6806276Y45776396D01*
X6305017Y46118892D01*
X5710000Y46239386D01*
X3170000Y46239386D01*
X2614133Y46134793D01*
X2103604Y45806276D01*
X1761108Y45305017D01*
X1640614Y44710000D01*
X1640614Y42170000D01*
X1745207Y41614133D01*
X2073724Y41103604D01*
X2574983Y40761108D01*
X3170000Y40640614D01*
X5710000Y40640614D01*
X6265867Y40745207D01*
X6776396Y41073724D01*
X7118892Y41574983D01*
X7130000Y41629836D01*
X7130000Y34023346D01*
X6789661Y34847029D01*
X6011128Y35626923D01*
X4993404Y36049519D01*
X3891430Y36050480D01*
X2872971Y35629661D01*
X2093077Y34851128D01*
X1670481Y33833404D01*
X1669520Y32731430D01*
X2090339Y31712971D01*
X2868872Y30933077D01*
X3886596Y30510481D01*
X4988570Y30509520D01*
X6007029Y30930339D01*
X6786923Y31708872D01*
X7130000Y32535093D01*
X7130000Y26285923D01*
X7114386Y26270336D01*
X7114386Y26420000D01*
X7009793Y26975867D01*
X6681276Y27486396D01*
X6180017Y27828892D01*
X5585000Y27949386D01*
X1775000Y27949386D01*
X1293000Y27858692D01*
X1293000Y52771524D01*
X1544388Y52771524D01*
X2080970Y51472896D01*
X3073670Y50478462D01*
X4371360Y49939614D01*
X5776476Y49938388D01*
X7075104Y50474970D01*
X8069538Y51467670D01*
X8608386Y52765360D01*
X8609612Y54170476D01*
X8073030Y55469104D01*
X7080330Y56463538D01*
X5782640Y57002386D01*
X4377524Y57003612D01*
X3078896Y56467030D01*
X2084462Y55474330D01*
X1545614Y54176640D01*
X1544388Y52771524D01*
X1293000Y52771524D01*
X1293000Y57375143D01*
X1334241Y57347587D01*
X1927400Y57229600D01*
X2130600Y57229600D01*
X2723759Y57347587D01*
X3155401Y57636000D01*
X15260466Y57636000D01*
X7502233Y49877767D01*
X7502233Y49877767D01*
G37*
X7502233Y49877767D02*
X6960301Y49066708D01*
X6770000Y48110000D01*
X6960301Y47153292D01*
X7130000Y46899319D01*
X7130000Y45273316D01*
X6806276Y45776396D01*
X6305017Y46118892D01*
X5710000Y46239386D01*
X3170000Y46239386D01*
X2614133Y46134793D01*
X2103604Y45806276D01*
X1761108Y45305017D01*
X1640614Y44710000D01*
X1640614Y42170000D01*
X1745207Y41614133D01*
X2073724Y41103604D01*
X2574983Y40761108D01*
X3170000Y40640614D01*
X5710000Y40640614D01*
X6265867Y40745207D01*
X6776396Y41073724D01*
X7118892Y41574983D01*
X7130000Y41629836D01*
X7130000Y34023346D01*
X6789661Y34847029D01*
X6011128Y35626923D01*
X4993404Y36049519D01*
X3891430Y36050480D01*
X2872971Y35629661D01*
X2093077Y34851128D01*
X1670481Y33833404D01*
X1669520Y32731430D01*
X2090339Y31712971D01*
X2868872Y30933077D01*
X3886596Y30510481D01*
X4988570Y30509520D01*
X6007029Y30930339D01*
X6786923Y31708872D01*
X7130000Y32535093D01*
X7130000Y26285923D01*
X7114386Y26270336D01*
X7114386Y26420000D01*
X7009793Y26975867D01*
X6681276Y27486396D01*
X6180017Y27828892D01*
X5585000Y27949386D01*
X1775000Y27949386D01*
X1293000Y27858692D01*
X1293000Y52771524D01*
X1544388Y52771524D01*
X2080970Y51472896D01*
X3073670Y50478462D01*
X4371360Y49939614D01*
X5776476Y49938388D01*
X7075104Y50474970D01*
X8069538Y51467670D01*
X8608386Y52765360D01*
X8609612Y54170476D01*
X8073030Y55469104D01*
X7080330Y56463538D01*
X5782640Y57002386D01*
X4377524Y57003612D01*
X3078896Y56467030D01*
X2084462Y55474330D01*
X1545614Y54176640D01*
X1544388Y52771524D01*
X1293000Y52771524D01*
X1293000Y57375143D01*
X1334241Y57347587D01*
X1927400Y57229600D01*
X2130600Y57229600D01*
X2723759Y57347587D01*
X3155401Y57636000D01*
X15260466Y57636000D01*
X7502233Y49877767D01*
M02*
