M48
METRIC,TZ
T1C0.700
T2C0.800
T3C1.001
T4C1.524
T5C3.048
%
G90
G05
T1
X11811Y38024
X15189Y49962
X20193Y35052
X26213Y50038
X28448Y51740
X33172Y41199
X33223Y45618
X40081Y51918
T2
X17043Y26098
X17043Y23559
X17043Y21019
X17043Y18479
X17043Y15939
X17043Y13399
X17043Y10859
X17043Y8319
X17043Y5778
X17043Y3238
X17519Y55385
X17519Y29985
X20059Y55385
X20059Y29985
X22599Y55385
X22599Y29985
X23012Y45530
X23012Y42990
X23012Y40450
X23012Y37910
X25139Y55385
X25139Y29985
X27679Y55385
X27679Y29985
X30219Y55385
X30219Y29985
X32759Y55385
X32759Y29985
X35299Y55385
X35299Y29985
X37839Y55385
X37839Y29985
X40379Y55385
X40379Y29985
X41554Y15616
X41554Y5456
X42919Y55385
X42919Y29985
X45459Y55385
X45459Y29985
X47999Y55385
X47999Y29985
X50539Y55385
X50539Y29985
X53079Y55385
X53079Y29985
X61714Y5536
X61874Y15616
T3
X53365Y20066
X60985Y20066
T4
X4089Y45872
X4089Y40792
X4089Y35712
X4089Y24765
X4089Y19685
X4089Y14605
X4089Y9525
X68986Y14808
X68986Y9728
X69063Y30175
X69063Y25095
T5
X4445Y3912
X5486Y53721
X68859Y4445
X69621Y53975
T0
M30
