M48
METRIC,TZ
T1C0.400
T2C0.700
T3C0.800
T4C1.001
T5C1.016
T6C1.524
T7C3.048
%
G90
G05
T1
X29941Y33830
X29941Y29020
T2
X46609Y48070
X52451Y48070
T3
X10921Y45150
X10921Y42610
X10921Y40070
X10921Y37530
X10921Y34990
X10921Y32450
X15081Y43765
X15081Y18365
X17621Y43765
X17621Y18365
X20161Y43765
X20161Y18365
X22701Y43765
X22701Y18365
X25241Y43765
X25241Y18365
X27781Y43765
X27781Y18365
X30321Y43765
X30321Y18365
X32861Y43765
X32861Y18365
X35401Y43765
X35401Y18365
X37941Y43765
X37941Y18365
X39751Y13140
X39751Y2980
X40481Y43765
X40481Y18365
X43021Y43765
X43021Y18365
X45561Y43765
X45561Y18365
X48101Y43765
X48101Y18365
X50641Y43765
X50641Y18365
X59911Y3060
X60071Y13140
T4
X64771Y15810
X64771Y8189
T5
X35561Y12760
X35561Y10220
T6
X5711Y4639
X10791Y4639
X15871Y4639
X19561Y50480
X20951Y4639
X24641Y50480
X26031Y4639
X29721Y50480
X31111Y4639
X64391Y25460
X64391Y20380
X64901Y42350
X64901Y37270
T7
X7241Y13019
X7371Y50100
X64771Y50740
X65401Y4130
T0
M30
