G04 #@! TF.FileFunction,Copper,L1,Top,Signal*
%FSLAX46Y46*%
G04 Gerber Fmt 4.6, Leading zero omitted, Abs format (unit mm)*
G04 Created by KiCad (PCBNEW 4.0.6) date Tuesday, 09 November 2021 'PMt' 18:18:22*
%MOMM*%
%LPD*%
G01*
G04 APERTURE LIST*
%ADD10C,0.100000*%
%ADD11O,2.000000X1.200000*%
%ADD12R,2.540000X2.540000*%
%ADD13C,2.540000*%
%ADD14C,1.998980*%
%ADD15O,1.800000X3.000000*%
%ADD16C,3.000000*%
%ADD17C,4.064000*%
%ADD18C,3.810000*%
%ADD19R,3.810000X3.810000*%
%ADD20C,1.200000*%
%ADD21C,1.000000*%
%ADD22C,0.700000*%
G04 APERTURE END LIST*
D10*
D11*
X23012400Y37909500D03*
X23012400Y40449500D03*
X23012400Y42989500D03*
X23012400Y45529500D03*
D12*
X4089400Y45872400D03*
D13*
X4089400Y40792400D03*
X4089400Y35712400D03*
D12*
X68986400Y14808200D03*
D13*
X68986400Y9728200D03*
D12*
X69062600Y25095200D03*
D13*
X69062600Y30175200D03*
D14*
X53365400Y20066000D03*
X60985400Y20066000D03*
D15*
X17519400Y55385000D03*
X17519400Y29985000D03*
X20059400Y55385000D03*
X20059400Y29985000D03*
X22599400Y55385000D03*
X22599400Y29985000D03*
X25139400Y55385000D03*
X25139400Y29985000D03*
X27679400Y55385000D03*
X27679400Y29985000D03*
X30219400Y55385000D03*
X30219400Y29985000D03*
X32759400Y55385000D03*
X32759400Y29985000D03*
X35299400Y55385000D03*
X35299400Y29985000D03*
X37839400Y55385000D03*
X37839400Y29985000D03*
X40379400Y55385000D03*
X40379400Y29985000D03*
X42919400Y55385000D03*
X42919400Y29985000D03*
X45459400Y55385000D03*
X45459400Y29985000D03*
X47999400Y55385000D03*
X47999400Y29985000D03*
X50539400Y55385000D03*
X50539400Y29985000D03*
X53079400Y55385000D03*
X53079400Y29985000D03*
D16*
X41554400Y5456000D03*
X61874400Y15616000D03*
X41554400Y15616000D03*
X61714400Y5536000D03*
D17*
X5486400Y53721000D03*
X69621400Y53975000D03*
X68859400Y4445000D03*
X4445000Y3911600D03*
D18*
X4089400Y19685000D03*
X4089400Y14605000D03*
D19*
X4089400Y24765000D03*
D18*
X4089400Y9525000D03*
D11*
X17043400Y26098500D03*
X17043400Y23558500D03*
X17043400Y21018500D03*
X17043400Y18478500D03*
X17043400Y15938500D03*
X17043400Y13398500D03*
X17043400Y10858500D03*
X17043400Y8318500D03*
X17043400Y5778500D03*
X17043400Y3238500D03*
D20*
X20193000Y35052000D03*
X11811000Y38023800D03*
X33223200Y45618400D03*
X33172400Y41198800D03*
X15189200Y49961800D03*
X26212800Y50038000D03*
X28448000Y51739800D03*
X40081200Y51917600D03*
D21*
X20193000Y35052000D02*
X17221200Y38023800D01*
X17221200Y38023800D02*
X11811000Y38023800D01*
D22*
X33223200Y45618400D02*
X33172400Y45567600D01*
D21*
X33172400Y45567600D02*
X33172400Y41198800D01*
X26136600Y49961800D02*
X15189200Y49961800D01*
X26212800Y50038000D02*
X26136600Y49961800D01*
X39903400Y51739800D02*
X28448000Y51739800D01*
X40081200Y51917600D02*
X39903400Y51739800D01*
M02*
