M48
METRIC,TZ
T1C0.700
T2C0.800
T3C1.001
T4C1.016
T5C1.524
T6C3.048
%
G90
G05
T1
X9120Y24740
X12720Y41900
X13110Y20830
X14060Y17450
X14230Y10610
X14260Y12620
X26380Y11560
X27950Y9630
X30460Y5520
X31100Y13820
X44380Y13460
X45550Y10860
X46020Y13200
X58490Y14710
X58630Y9460
T2
X16470Y46410
X16470Y21010
X19010Y46410
X19010Y21010
X21550Y46410
X21550Y21010
X24090Y46410
X24090Y21010
X26630Y46410
X26630Y21010
X29170Y46410
X29170Y21010
X31710Y46410
X31710Y21010
X34250Y46410
X34250Y21010
X36790Y46410
X36790Y21010
X39330Y46410
X39330Y21010
X41870Y46410
X41870Y21010
X44410Y46410
X44410Y21010
X46950Y46410
X46950Y21010
X49490Y46410
X49490Y21010
X52030Y46410
X52030Y21010
X57240Y45990
X57240Y30490
X66740Y45990
X66740Y30490
T3
X70430Y37440
X70430Y29820
T4
X23230Y52290
X25770Y52290
X28310Y52290
X30850Y52290
X31370Y9830
X33390Y52290
X33910Y9830
X35930Y52290
X36450Y9830
X38470Y52290
X38990Y9830
X41010Y52290
X41530Y9830
T5
X3680Y24515
X3680Y19435
X3680Y14355
X3680Y9275
X4440Y43440
X4440Y38360
X4440Y33280
X68300Y24880
X68300Y19800
X68300Y14720
X68300Y9640
T6
X4036Y3662
X5077Y53471
X68450Y4195
X69212Y53725
T0
M30
